<svg width="2379" height="1151" xmlns="http://www.w3.org/2000/svg" xmlns:xlink="http://www.w3.org/1999/xlink" xml:space="preserve" overflow="hidden"><g transform="translate(-623 -508)"><g><g><g><g><path d="M261.25 137.5C261.25 205.842 205.844 261.25 137.5 261.25 69.1556 261.25 13.75 205.842 13.75 137.5 13.75 69.1579 69.1556 13.75 137.5 13.75 205.844 13.75 261.25 69.1579 261.25 137.5" fill="#FFB0B0" fill-rule="nonzero" fill-opacity="1" transform="matrix(1 0 0 1.00727 2101 512)"/></g></g></g><g><g><g><path d="M261.25 137.5C261.25 205.842 205.844 261.25 137.5 261.25 69.1556 261.25 13.75 205.842 13.75 137.5 13.75 69.1579 69.1556 13.75 137.5 13.75 205.844 13.75 261.25 69.1579 261.25 137.5" fill="#FFB0B0" fill-rule="nonzero" fill-opacity="1" transform="matrix(1 0 0 1.00727 2727 512)"/></g></g></g><path d="M0 0 122.544 0 122.544 137.628" stroke="#595959" stroke-width="10.3125" stroke-linecap="butt" stroke-linejoin="miter" stroke-miterlimit="8" stroke-opacity="1" fill="none" fill-rule="evenodd" transform="matrix(1.83697e-16 1 1 -1.83697e-16 2239 789)"/><path d="M2864.63 789 2864.63 911.543 2727 911.543" stroke="#595959" stroke-width="10.3125" stroke-linecap="butt" stroke-linejoin="miter" stroke-miterlimit="8" stroke-opacity="1" fill="none" fill-rule="evenodd"/><path d="M2552 990 2552 1153.85" stroke="#595959" stroke-width="10.3125" stroke-linecap="butt" stroke-linejoin="miter" stroke-miterlimit="8" stroke-opacity="1" fill="none" fill-rule="evenodd"/><g><g><g><path d="M2557.68 820.312C2557.68 799.175 2557.51 751.038 2557.51 744.657 2557.51 739.606 2549.96 739.323 2549.96 744.657 2549.96 751.038 2550.04 799.175 2550.04 820.312 2547.5 820.796 2545.48 820.348 2540.52 824.966 2535.97 829.205 2535.13 838.442 2537.03 842.723 2538.92 847.004 2542.11 849.891 2544.49 851.211 2542.06 851.786 2537.41 854.136 2533.81 856.578 2530.21 859.021 2526.56 863.076 2525.28 864.845 2511.31 850.424 2508.7 850.618 2501.7 839.192 2494.7 827.766 2493.1 820.249 2492.7 809.425 2492.3 798.6 2492.7 799.703 2492.7 795.393 2492.7 791.083 2483.51 789.079 2483.51 795.393L2483.51 809.425C2483.51 819.648 2486.01 829.971 2489.8 837.288 2492.84 843.141 2507.13 860.039 2513.9 867.757 2491.1 873.87 2443.3 886.547 2412.43 895.046 2377.82 904.576 2389.32 945.732 2421.91 937.113 2447.98 930.219 2501.43 915.531 2528.29 908.148L2529.19 909.05C2522.91 913.062 2511.7 918.753 2498.9 929.096 2482.91 942.024 2470.01 966.881 2467.81 972.193 2465.61 977.505 2472.01 983.719 2475.91 976.203 2479.81 968.684 2490.54 946.588 2507.8 933.805 2520.06 924.725 2528.29 920.534 2536.59 915.465L2538.59 916.467C2534.62 920.343 2524.15 932.082 2514 948.038 2501.3 967.984 2501.8 1006.67 2501.5 1016.69 2501.2 1026.72 2501.6 1062.8 2502.1 1067.81 2502.6 1072.82 2511.3 1074.12 2511.1 1066.91 2510.9 1059.69 2510.4 1022.11 2510.4 1016.69 2510.4 1011.28 2511.1 971.892 2521.19 953.751 2529.27 939.239 2532.69 937.113 2532.69 937.113 2532.76 952.782 2532.85 985.263 2532.69 998.973 2532.49 1016.11 2544.69 1021.2 2553.88 1021.2 2563.08 1021.2 2575.28 1016.11 2575.08 998.973 2574.92 985.263 2575.01 952.782 2575.08 937.113 2575.08 937.113 2578.49 939.239 2586.57 953.751 2596.67 971.892 2597.37 1011.28 2597.37 1016.69 2597.37 1022.11 2596.87 1059.69 2596.67 1066.91 2596.47 1074.12 2605.17 1072.82 2605.67 1067.81 2606.16 1062.8 2606.57 1026.72 2606.26 1016.69 2605.97 1006.67 2606.47 967.984 2593.77 948.038 2583.61 932.082 2573.14 920.343 2569.18 916.467L2571.18 915.465C2579.47 920.534 2587.71 924.725 2599.97 933.805 2617.22 946.588 2627.96 968.684 2631.86 976.203 2635.76 983.719 2642.15 977.505 2639.95 972.193 2637.75 966.881 2624.86 942.024 2608.86 929.096 2596.07 918.753 2584.86 913.062 2578.57 909.05L2579.47 908.148C2606.33 915.531 2659.78 930.219 2685.85 937.113 2718.44 945.732 2729.95 904.576 2695.33 895.046 2664.46 886.547 2616.66 873.87 2593.87 867.757 2600.63 860.039 2614.92 843.141 2617.96 837.288 2621.76 829.971 2624.26 819.648 2624.26 809.425L2624.26 795.393C2624.26 789.079 2615.06 791.083 2615.06 795.393 2615.06 799.703 2615.46 798.6 2615.06 809.425 2614.66 820.249 2613.06 827.766 2606.06 839.192 2599.07 850.618 2596.53 850.424 2582.57 864.845 2581.29 863.076 2577.56 859.021 2573.95 856.578 2570.35 854.136 2565.7 851.786 2563.28 851.211 2565.66 849.891 2568.85 847.004 2570.74 842.723 2572.63 838.442 2571.8 829.205 2567.25 824.966 2562.29 820.348 2560.23 820.796 2557.68 820.312Z" fill="#21272A" fill-rule="nonzero" fill-opacity="1"/></g></g></g><g><g><g><path d="M261.25 137.5C261.25 205.842 205.844 261.25 137.5 261.25 69.1556 261.25 13.75 205.842 13.75 137.5 13.75 69.1579 69.1556 13.75 137.5 13.75 205.844 13.75 261.25 69.1579 261.25 137.5" fill="#FFB0B0" fill-rule="nonzero" fill-opacity="1" transform="matrix(1 0 0 1.01091 2414 1158)"/></g></g></g><g><g><g><path d="M410.771 109.735C410.771 150.751 377.665 184.001 336.825 184.001 295.986 184.001 262.879 150.751 262.879 109.735 262.879 68.7189 295.986 35.4687 336.825 35.4687 377.665 35.4687 410.771 68.7189 410.771 109.735Z" fill="#21272A" fill-rule="nonzero" fill-opacity="1" transform="matrix(1 0 0 1 626 974)"/><path d="M225.906 270.654C210.053 312.05 208.978 365.736 209.312 389.975 209.417 397.587 214.489 404.315 221.701 406.745L234.122 410.934 243.976 414.892C250.475 417.503 254.829 423.695 255.087 430.693L262.249 624.903C262.601 634.437 270.431 641.984 279.971 641.984L393.678 641.984C403.219 641.984 411.051 634.437 411.402 624.903L418.563 430.711C418.822 423.703 423.185 417.506 429.693 414.899L439.607 410.93 452.219 406.72C459.455 404.305 464.538 397.566 464.616 389.936 464.86 365.676 463.587 312.028 447.743 270.654 427.203 217.016 410.771 214.947 394.338 208.757 377.905 202.568 303.96 202.568 283.42 208.756 262.879 214.945 246.446 217.017 225.906 270.654Z" fill="#21272A" fill-rule="nonzero" fill-opacity="1" transform="matrix(1 0 0 1 626 974)"/></g></g></g><path d="M1114.5 1271.14 1166.51 1219.13 1149.52 1202.15 1217.45 1202.15 1217.45 1270.08 1200.47 1253.1 1148.47 1305.1Z" stroke="#21272A" stroke-width="11.4583" stroke-linecap="butt" stroke-linejoin="miter" stroke-miterlimit="8" stroke-opacity="1" fill="#D9D9D9" fill-rule="evenodd" fill-opacity="1"/><g><g><g><path d="M1449.15 1045.39C1424.5 1037.75 1316.72 996.894 1287.72 985.075 1251.87 970.467 1273.78 928.029 1304.88 938.221 1317.05 941.474 1387.44 976.539 1397.56 979.128 1395.37 976.555 1334.54 927.139 1331.71 923.893 1306.64 898.831 1340.42 865.978 1372 892.884 1444.46 954.6 1468.01 969.774 1533.64 1035.39 1577.45 1044.51 1614.47 1069.26 1591.13 1110.95 1591.13 1110.95 1594.46 1112.62 1596.13 1112.62 1604.47 1102.61 1625.15 1095.94 1641.16 1109.28 1657.17 1122.63 1659.51 1144.31 1646.16 1157.65 1684.17 1203.4 1697.87 1209.73 1730.62 1240.3 1740.59 1249.6 1728.34 1263.29 1718.93 1254.61 1685.15 1223.44 1670.9 1207.41 1631.15 1167.66 1617.81 1172.66 1605.58 1165.99 1601.13 1162.66 1596.68 1159.32 1587.79 1149.68 1587.79 1135.97 1582.79 1134.3 1577.78 1130.96 1572.78 1134.3 1561 1142.15 1556.86 1146.42 1545.79 1147.34 1545.94 1238.96 1553.83 1298.21 1671.98 1280.5 1684.04 1278.34 1687.32 1296.67 1675.27 1298.82 1545.28 1322.45 1528.26 1251.34 1527.75 1149.68L1516.07 1149.68C1517.21 1215.77 1529.98 1307.98 1449.8 1329.44 1437.92 1332.61 1433.11 1314.56 1444.98 1311.4 1510.74 1293.8 1499.79 1203.49 1498.51 1147.34L1487.72 1144.68C1485.96 1245.61 1439.5 1328.25 1322.32 1306.46 1310.28 1304.26 1313.61 1285.92 1325.68 1288.13 1431.9 1307.86 1469.11 1238.08 1469.11 1144 1446.02 1149.68 1414.33 1147.34 1387.65 1140.97 1332.92 1127.92 1303.68 1115.03 1280.9 1099.65 1258.12 1084.27 1267.41 1078.34 1279.24 1071.29 1291.06 1064.25 1349.29 1045.39 1449.15 1045.39Z" fill="#21272A" fill-rule="evenodd" fill-opacity="1"/></g></g></g><g><g><g><path d="M2127.77 1084.73C2127.77 1125.75 2094.66 1159 2053.83 1159 2012.99 1159 1979.88 1125.75 1979.88 1084.73 1979.88 1043.72 2012.99 1010.47 2053.83 1010.47 2094.66 1010.47 2127.77 1043.72 2127.77 1084.73Z" fill="#21272A" fill-rule="nonzero" fill-opacity="1"/><path d="M1942.91 1245.65C1927.05 1287.05 1925.98 1340.74 1926.31 1364.98 1926.42 1372.59 1931.49 1379.32 1938.7 1381.74L1951.12 1385.93 1960.98 1389.89C1967.48 1392.5 1971.83 1398.7 1972.09 1405.69L1979.25 1599.9C1979.6 1609.44 1987.43 1616.98 1996.97 1616.98L2110.68 1616.98C2120.22 1616.98 2128.05 1609.44 2128.4 1599.9L2135.56 1405.71C2135.82 1398.7 2140.18 1392.51 2146.69 1389.9L2156.61 1385.93 2169.22 1381.72C2176.46 1379.3 2181.54 1372.57 2181.62 1364.94 2181.86 1340.68 2180.59 1287.03 2164.74 1245.65 2144.2 1192.02 2127.77 1189.95 2111.34 1183.76 2094.91 1177.57 2020.96 1177.57 2000.42 1183.76 1979.88 1189.94 1963.45 1192.02 1942.91 1245.65Z" fill="#21272A" fill-rule="nonzero" fill-opacity="1"/></g></g></g><path d="M1820.27 1193.16 1872.28 1245.17 1889.26 1228.19 1889.26 1296.12 1821.33 1296.12 1838.31 1279.13 1786.31 1227.13Z" stroke="#21272A" stroke-width="11.4583" stroke-linecap="butt" stroke-linejoin="miter" stroke-miterlimit="8" stroke-opacity="1" fill="#D9D9D9" fill-rule="evenodd" fill-opacity="1"/><g><g><g><path d="M76.0001 40C76.0001 59.8814 59.8821 76.0001 40 76.0001 20.118 76.0001 4.00001 59.8814 4.00001 40 4.00001 20.1187 20.118 4.00001 40 4.00001 59.8821 4.00001 76.0001 20.1187 76.0001 40" fill="#FFB0B0" fill-rule="nonzero" fill-opacity="1" transform="matrix(1 0 0 1.0125 1492 1052)"/></g></g></g><g><g><g><path d="M75.9997 39.9999C75.9997 59.8811 59.8818 75.9997 39.9999 75.9997 20.1179 75.9997 3.99999 59.8811 3.99999 39.9999 3.99999 20.1186 20.1179 3.99999 39.9999 3.99999 59.8818 3.99999 75.9997 20.1186 75.9997 39.9999" fill="#FFB0B0" fill-rule="nonzero" fill-opacity="1" transform="matrix(1 0 0 1.0125 1412 1052)"/></g></g></g><path d="M2101 1300 2416.92 1300" stroke="#595959" stroke-width="10.3125" stroke-linecap="butt" stroke-linejoin="miter" stroke-miterlimit="8" stroke-dasharray="10.3125 10.3125" stroke-opacity="1" fill="none" fill-rule="evenodd"/><g><g><g><path d="M107.35 56.5C107.35 84.5825 84.5834 107.35 56.5 107.35 28.4167 107.35 5.65 84.5825 5.65 56.5 5.65 28.4176 28.4167 5.65 56.5 5.65 84.5834 5.65 107.35 28.4176 107.35 56.5" fill="#FFB0B0" fill-rule="nonzero" fill-opacity="1" transform="matrix(1 0 0 1.0177 908 1215)"/></g></g></g><g><g><g><path d="M107.35 56.5C107.35 84.5825 84.5834 107.35 56.5 107.35 28.4167 107.35 5.65 84.5825 5.65 56.5 5.65 28.4176 28.4167 5.65 56.5 5.65 84.5834 5.65 107.35 28.4176 107.35 56.5" fill="#B8E6FA" fill-rule="nonzero" fill-opacity="1" transform="matrix(1 0 0 1.02655 910 1330)"/></g></g></g><g><g><g><path d="M107.35 56.5C107.35 84.5825 84.5834 107.35 56.5 107.35 28.4167 107.35 5.65 84.5825 5.65 56.5 5.65 28.4176 28.4167 5.65 56.5 5.65 84.5834 5.65 107.35 28.4176 107.35 56.5" fill="#FFB0B0" fill-rule="nonzero" fill-opacity="1" transform="matrix(1 0 0 1.0177 2001 1243)"/></g></g></g></g></g></svg>