<svg width="2384" height="1146" xmlns="http://www.w3.org/2000/svg" xmlns:xlink="http://www.w3.org/1999/xlink" xml:space="preserve" overflow="hidden"><defs><clipPath id="clip0"><rect x="618" y="504" width="2384" height="1146"/></clipPath><clipPath id="clip1"><rect x="618" y="504" width="2384" height="1146"/></clipPath></defs><g clip-path="url(#clip0)" transform="translate(-618 -504)"><g clip-path="url(#clip1)"><g><g><g><path d="M410.771 109.735C410.771 150.751 377.665 184.001 336.825 184.001 295.986 184.001 262.879 150.751 262.879 109.735 262.879 68.7189 295.986 35.4687 336.825 35.4687 377.665 35.4687 410.771 68.7189 410.771 109.735Z" fill="#21272A" fill-rule="nonzero" fill-opacity="1" transform="matrix(1 0 0 1 622 968)"/><path d="M225.906 270.654C210.053 312.05 208.978 365.736 209.312 389.975 209.417 397.587 214.489 404.315 221.701 406.745L234.122 410.934 243.976 414.892C250.475 417.503 254.829 423.695 255.087 430.693L262.249 624.903C262.601 634.437 270.431 641.984 279.971 641.984L393.678 641.984C403.219 641.984 411.051 634.437 411.402 624.903L418.563 430.711C418.822 423.703 423.185 417.506 429.693 414.899L439.607 410.93 452.219 406.72C459.455 404.305 464.538 397.566 464.616 389.936 464.86 365.676 463.587 312.028 447.743 270.654 427.203 217.016 410.771 214.947 394.338 208.757 377.905 202.568 303.96 202.568 283.42 208.756 262.879 214.945 246.446 217.017 225.906 270.654Z" fill="#21272A" fill-rule="nonzero" fill-opacity="1" transform="matrix(1 0 0 1 622 968)"/></g></g></g><path d="M1110.5 1265.14 1162.51 1213.13 1145.52 1196.15 1213.45 1196.15 1213.45 1264.08 1196.47 1247.1 1144.47 1299.1Z" stroke="#21272A" stroke-width="11.4583" stroke-linecap="butt" stroke-linejoin="miter" stroke-miterlimit="8" stroke-opacity="1" fill="#D9D9D9" fill-rule="evenodd" fill-opacity="1"/><g><g><g><path d="M1445.15 1039.39C1420.5 1031.75 1312.72 990.894 1283.72 979.075 1247.87 964.467 1269.78 922.029 1300.88 932.221 1313.05 935.474 1383.44 970.539 1393.56 973.128 1391.36 970.555 1330.54 921.139 1327.71 917.893 1302.64 892.831 1336.42 859.978 1368 886.884 1440.46 948.6 1464.01 963.774 1529.64 1029.39 1573.45 1038.51 1610.47 1063.26 1587.13 1104.95 1587.13 1104.95 1590.46 1106.62 1592.13 1106.62 1600.47 1096.61 1621.15 1089.94 1637.16 1103.28 1653.17 1116.63 1655.51 1138.31 1642.16 1151.65 1680.17 1197.4 1693.87 1203.73 1726.62 1234.3 1736.59 1243.6 1724.34 1257.29 1714.93 1248.61 1681.15 1217.44 1666.9 1201.41 1627.15 1161.66 1613.81 1166.66 1601.58 1159.99 1597.13 1156.66 1592.68 1153.32 1583.79 1143.68 1583.79 1129.97 1578.79 1128.3 1573.78 1124.96 1568.78 1128.3 1557 1136.15 1552.86 1140.42 1541.79 1141.34 1541.94 1232.96 1549.83 1292.21 1667.98 1274.5 1680.04 1272.34 1683.32 1290.67 1671.27 1292.82 1541.28 1316.45 1524.26 1245.34 1523.75 1143.68L1512.07 1143.68C1513.21 1209.77 1525.98 1301.98 1445.8 1323.44 1433.92 1326.61 1429.11 1308.56 1440.98 1305.4 1506.74 1287.8 1495.79 1197.49 1494.51 1141.34L1483.72 1138.68C1481.95 1239.61 1435.5 1322.25 1318.32 1300.46 1306.28 1298.26 1309.61 1279.92 1321.67 1282.13 1427.9 1301.86 1465.11 1232.08 1465.11 1138 1442.02 1143.68 1410.33 1141.34 1383.65 1134.97 1328.92 1121.92 1299.68 1109.03 1276.9 1093.65 1254.12 1078.27 1263.41 1072.34 1275.24 1065.29 1287.06 1058.25 1345.29 1039.39 1445.15 1039.39Z" fill="#21272A" fill-rule="evenodd" fill-opacity="1"/></g></g></g><g><g><g><path d="M2123.77 1078.73C2123.77 1119.75 2090.66 1153 2049.83 1153 2008.99 1153 1975.88 1119.75 1975.88 1078.73 1975.88 1037.72 2008.99 1004.47 2049.83 1004.47 2090.66 1004.47 2123.77 1037.72 2123.77 1078.73Z" fill="#21272A" fill-rule="nonzero" fill-opacity="1"/><path d="M1938.91 1239.65C1923.05 1281.05 1921.98 1334.74 1922.31 1358.98 1922.42 1366.59 1927.49 1373.32 1934.7 1375.74L1947.12 1379.93 1956.98 1383.89C1963.48 1386.5 1967.83 1392.7 1968.09 1399.69L1975.25 1593.9C1975.6 1603.44 1983.43 1610.98 1992.97 1610.98L2106.68 1610.98C2116.22 1610.98 2124.05 1603.44 2124.4 1593.9L2131.56 1399.71C2131.82 1392.7 2136.18 1386.51 2142.69 1383.9L2152.61 1379.93 2165.22 1375.72C2172.45 1373.3 2177.54 1366.57 2177.62 1358.94 2177.86 1334.68 2176.59 1281.03 2160.74 1239.65 2140.2 1186.02 2123.77 1183.95 2107.34 1177.76 2090.91 1171.57 2016.96 1171.57 1996.42 1177.76 1975.88 1183.94 1959.45 1186.02 1938.91 1239.65Z" fill="#21272A" fill-rule="nonzero" fill-opacity="1"/></g></g></g><path d="M1816.27 1187.16 1868.28 1239.17 1885.26 1222.19 1885.26 1290.12 1817.33 1290.12 1834.31 1273.13 1782.31 1221.13Z" stroke="#21272A" stroke-width="11.4583" stroke-linecap="butt" stroke-linejoin="miter" stroke-miterlimit="8" stroke-opacity="1" fill="#D9D9D9" fill-rule="evenodd" fill-opacity="1"/><g><g><g><path d="M75.9997 39.9999C75.9997 59.8811 59.8818 75.9997 39.9999 75.9997 20.1179 75.9997 3.99999 59.8811 3.99999 39.9999 3.99999 20.1186 20.1179 3.99999 39.9999 3.99999 59.8818 3.99999 75.9997 20.1186 75.9997 39.9999" fill="#B8E6FA" fill-rule="nonzero" fill-opacity="1" transform="matrix(1 0 0 1.0125 1488 1046)"/></g></g></g><g><g><g><path d="M76.0001 40C76.0001 59.8814 59.8821 76.0001 40 76.0001 20.118 76.0001 4.00001 59.8814 4.00001 40 4.00001 20.1187 20.118 4.00001 40 4.00001 59.8821 4.00001 76.0001 20.1187 76.0001 40" fill="#FFB0B0" fill-rule="nonzero" fill-opacity="1" transform="matrix(1 0 0 1.0125 1408 1046)"/></g></g></g><g><path d="M2053.66 1248.53C2082.31 1248.53 2105.54 1271.76 2105.54 1300.42 2105.54 1329.07 2082.31 1352.3 2053.66 1352.3L2053.66 1300.42Z" fill="#B8E6FA" fill-rule="evenodd" fill-opacity="1"/></g><g><path d="M2053.66 1352.3C2025 1352.3 2001.78 1329.07 2001.78 1300.42 2001.78 1271.76 2025 1248.53 2053.66 1248.53L2053.66 1300.42Z" fill="#FFB0B0" fill-rule="evenodd" fill-opacity="1"/></g><g><g><g><path d="M261.25 137.5C261.25 205.842 205.844 261.25 137.5 261.25 69.1556 261.25 13.75 205.842 13.75 137.5 13.75 69.1579 69.1556 13.75 137.5 13.75 205.844 13.75 261.25 69.1579 261.25 137.5" fill="#FFB0B0" fill-rule="nonzero" fill-opacity="1" transform="matrix(1 0 0 1.00727 2097 506)"/></g></g></g><g><g><g><path d="M261.25 137.5C261.25 205.842 205.844 261.25 137.5 261.25 69.1556 261.25 13.75 205.842 13.75 137.5 13.75 69.1579 69.1556 13.75 137.5 13.75 205.844 13.75 261.25 69.1579 261.25 137.5" fill="#FFB0B0" fill-rule="nonzero" fill-opacity="1" transform="matrix(1 0 0 1.00727 2723 506)"/></g></g></g><path d="M0 0 122.544 0 122.544 137.628" stroke="#595959" stroke-width="10.3125" stroke-linecap="butt" stroke-linejoin="miter" stroke-miterlimit="8" stroke-opacity="1" fill="none" fill-rule="evenodd" transform="matrix(1.83697e-16 1 1 -1.83697e-16 2235 783)"/><path d="M2860.63 783 2860.63 905.544 2723 905.544" stroke="#595959" stroke-width="10.3125" stroke-linecap="butt" stroke-linejoin="miter" stroke-miterlimit="8" stroke-opacity="1" fill="none" fill-rule="evenodd"/><path d="M2548 984 2548 1147.85" stroke="#595959" stroke-width="10.3125" stroke-linecap="butt" stroke-linejoin="miter" stroke-miterlimit="8" stroke-opacity="1" fill="none" fill-rule="evenodd"/><g><g><g><path d="M2553.69 814.312C2553.69 793.175 2553.51 745.039 2553.51 738.657 2553.51 733.606 2545.96 733.323 2545.96 738.657 2545.96 745.039 2546.04 793.175 2546.04 814.312 2543.5 814.796 2541.48 814.348 2536.52 818.967 2531.97 823.205 2531.13 832.442 2533.03 836.723 2534.92 841.004 2538.11 843.891 2540.49 845.211 2538.06 845.786 2533.41 848.136 2529.81 850.578 2526.21 853.021 2522.56 857.076 2521.28 858.846 2507.31 844.424 2504.7 844.618 2497.7 833.192 2490.7 821.766 2489.1 814.249 2488.7 803.425 2488.3 792.6 2488.7 793.703 2488.7 789.393 2488.7 785.083 2479.51 783.079 2479.51 789.393L2479.51 803.425C2479.51 813.648 2482.01 823.971 2485.8 831.288 2488.84 837.141 2503.13 854.039 2509.9 861.757 2487.1 867.871 2439.3 880.547 2408.43 889.046 2373.82 898.577 2385.32 939.732 2417.91 931.113 2443.98 924.219 2497.43 909.531 2524.29 902.148L2525.19 903.05C2518.91 907.062 2507.7 912.753 2494.9 923.096 2478.91 936.024 2466.01 960.881 2463.81 966.193 2461.61 971.505 2468.01 977.719 2471.91 970.203 2475.81 962.684 2486.54 940.588 2503.8 927.806 2516.06 918.725 2524.29 914.534 2532.59 909.465L2534.59 910.467C2530.62 914.343 2520.15 926.082 2510 942.038 2497.3 961.984 2497.8 1000.67 2497.5 1010.69 2497.2 1020.72 2497.6 1056.8 2498.1 1061.81 2498.6 1066.82 2507.3 1068.12 2507.1 1060.91 2506.9 1053.69 2506.4 1016.11 2506.4 1010.69 2506.4 1005.28 2507.1 965.892 2517.19 947.751 2525.27 933.239 2528.69 931.113 2528.69 931.113 2528.76 946.782 2528.85 979.263 2528.69 992.973 2528.49 1010.11 2540.69 1015.2 2549.88 1015.2 2559.08 1015.2 2571.28 1010.11 2571.08 992.973 2570.92 979.263 2571.01 946.782 2571.08 931.113 2571.08 931.113 2574.49 933.239 2582.57 947.751 2592.67 965.892 2593.37 1005.28 2593.37 1010.69 2593.37 1016.11 2592.87 1053.69 2592.67 1060.91 2592.47 1068.12 2601.17 1066.82 2601.67 1061.81 2602.16 1056.8 2602.57 1020.72 2602.26 1010.69 2601.97 1000.67 2602.47 961.984 2589.77 942.038 2579.61 926.082 2569.14 914.343 2565.18 910.467L2567.18 909.465C2575.47 914.534 2583.71 918.725 2595.97 927.806 2613.22 940.588 2623.96 962.684 2627.86 970.203 2631.76 977.719 2638.15 971.505 2635.95 966.193 2633.75 960.881 2620.86 936.024 2604.86 923.096 2592.07 912.753 2580.86 907.062 2574.57 903.05L2575.47 902.148C2602.33 909.531 2655.78 924.219 2681.85 931.113 2714.44 939.732 2725.95 898.577 2691.33 889.046 2660.46 880.547 2612.66 867.871 2589.87 861.757 2596.63 854.039 2610.92 837.141 2613.96 831.288 2617.76 823.971 2620.26 813.648 2620.26 803.425L2620.26 789.393C2620.26 783.079 2611.06 785.083 2611.06 789.393 2611.06 793.703 2611.46 792.6 2611.06 803.425 2610.66 814.249 2609.06 821.766 2602.06 833.192 2595.07 844.618 2592.53 844.424 2578.57 858.846 2577.29 857.076 2573.56 853.021 2569.95 850.578 2566.35 848.136 2561.7 845.786 2559.28 845.211 2561.66 843.891 2564.85 841.004 2566.74 836.723 2568.63 832.442 2567.8 823.205 2563.25 818.967 2558.29 814.348 2556.23 814.796 2553.69 814.312Z" fill="#21272A" fill-rule="nonzero" fill-opacity="1"/></g></g></g><g><path d="M2547.6 1166.54C2616.35 1166.54 2672.08 1222.28 2672.08 1291.03 2672.08 1359.78 2616.35 1415.51 2547.6 1415.51L2547.6 1291.03Z" fill="#B8E6FA" fill-rule="evenodd" fill-opacity="1"/></g><g><path d="M2547.6 1415.51C2478.85 1415.51 2423.12 1359.78 2423.12 1291.03 2423.12 1222.28 2478.85 1166.54 2547.6 1166.54L2547.6 1291.03Z" fill="#FFB0B0" fill-rule="evenodd" fill-opacity="1"/></g><g><g><g><path d="M107.35 56.5C107.35 84.5825 84.5834 107.35 56.5 107.35 28.4167 107.35 5.65 84.5825 5.65 56.5 5.65 28.4176 28.4167 5.65 56.5 5.65 84.5834 5.65 107.35 28.4176 107.35 56.5" fill="#FFB0B0" fill-rule="nonzero" fill-opacity="1" transform="matrix(1 0 0 1.0177 908 1215)"/></g></g></g><g><g><g><path d="M107.35 56.5C107.35 84.5825 84.5834 107.35 56.5 107.35 28.4167 107.35 5.65 84.5825 5.65 56.5 5.65 28.4176 28.4167 5.65 56.5 5.65 84.5834 5.65 107.35 28.4176 107.35 56.5" fill="#B8E6FA" fill-rule="nonzero" fill-opacity="1" transform="matrix(1 0 0 1.02655 910 1330)"/></g></g></g><path d="M2116 1300 2417.1 1300" stroke="#595959" stroke-width="10.3125" stroke-linecap="butt" stroke-linejoin="miter" stroke-miterlimit="8" stroke-dasharray="10.3125 10.3125" stroke-opacity="1" fill="none" fill-rule="evenodd"/></g></g></svg>