<svg tabIndex="0" width="1861" height="1778" xmlns="http://www.w3.org/2000/svg" xmlns:xlink="http://www.w3.org/1999/xlink" xml:space="preserve" overflow="hidden"><g transform="translate(-169 -302)"><g><g><g><g><path d="M235.847 63.005C235.847 86.5546 216.838 105.645 193.39 105.645 169.942 105.645 150.934 86.5546 150.934 63.005 150.934 39.4554 169.942 20.3646 193.39 20.3646 216.838 20.3646 235.847 39.4554 235.847 63.005Z" fill="#21272A" fill-rule="nonzero" fill-opacity="1" transform="matrix(1 0 0 1.00256 1637 911)"/><path d="M129.705 155.397C120.603 179.165 119.986 209.99 120.178 223.907 120.238 228.277 123.15 232.14 127.291 233.535L134.423 235.94 140.08 238.213C143.812 239.712 146.312 243.267 146.46 247.285L150.572 358.792C150.774 364.266 155.27 368.599 160.747 368.599L226.033 368.599C231.511 368.599 236.007 364.266 236.209 358.792L240.321 247.295C240.469 243.271 242.974 239.714 246.711 238.217L252.403 235.938 259.645 233.521C263.799 232.134 266.717 228.265 266.762 223.884 266.902 209.955 266.171 179.153 257.074 155.397 245.281 124.601 235.846 123.413 226.412 119.859 216.977 116.305 174.52 116.306 162.727 119.859 150.934 123.412 141.498 124.602 129.705 155.397Z" fill="#21272A" fill-rule="nonzero" fill-opacity="1" transform="matrix(1 0 0 1.00256 1637 911)"/></g></g></g><g><g><g><path d="M45.5998 23.9999C45.5998 35.9286 35.929 45.5998 23.9999 45.5998 12.0707 45.5998 2.39999 35.9286 2.39999 23.9999 2.39999 12.0711 12.0707 2.39999 23.9999 2.39999 35.929 2.39999 45.5998 12.0711 45.5998 23.9999" fill="#FFFFFF" fill-rule="nonzero" fill-opacity="1" transform="matrix(1 0 0 1.02083 1809 1070)"/></g></g></g>
<!-- Person BOT RIGHT -->
<g><g><g><path id="person-bot-right" d="M235.847 63.0049C235.847 86.5546 216.838 105.645 193.39 105.645 169.942 105.645 150.934 86.5546 150.934 63.0049 150.934 39.4553 169.942 20.3646 193.39 20.3646 216.838 20.3646 235.847 39.4553 235.847 63.0049Z" fill="#21272A" fill-rule="nonzero" fill-opacity="1" transform="matrix(1.00256 0 0 1 1377 1686)"/><path d="M129.705 155.397C120.603 179.165 119.986 209.989 120.178 223.906 120.238 228.277 123.15 232.14 127.291 233.535L134.423 235.94 140.08 238.213C143.812 239.711 146.312 243.267 146.46 247.285L150.572 358.791C150.774 364.265 155.27 368.599 160.747 368.599L226.033 368.599C231.511 368.599 236.007 364.265 236.209 358.791L240.32 247.295C240.469 243.271 242.974 239.713 246.711 238.217L252.403 235.938 259.644 233.521C263.799 232.134 266.717 228.264 266.762 223.884 266.902 209.955 266.171 179.152 257.074 155.397 245.281 124.601 235.846 123.413 226.411 119.859 216.976 116.305 174.52 116.306 162.727 119.859 150.933 123.412 141.498 124.601 129.705 155.397Z" fill="#21272A" fill-rule="nonzero" fill-opacity="1" transform="matrix(1.00256 0 0 1 1377 1686)"/></g></g></g>
<!-- Person Circle BOT RIGHT -->
<g><g><g><path id="circle-bot-right" d="M45.6001 24.0001C45.6001 35.9289 35.9293 45.6001 24.0001 45.6001 12.0708 45.6001 2.40001 35.9289 2.40001 24.0001 2.40001 12.0712 12.0708 2.40001 24.0001 2.40001 35.9293 2.40001 45.6001 12.0712 45.6001 24.0001" fill="lightblue" fill-rule="nonzero" fill-opacity="1" transform="matrix(1 0 0 1.02083 1549 1845)"/>
</g></g></g>
<!-- Person TOP -->

<g><g><g><path d="M235.847 63.0049C235.847 86.5546 216.838 105.645 193.39 105.645 169.942 105.645 150.934 86.5546 150.934 63.0049 150.934 39.4553 169.942 20.3646 193.39 20.3646 216.838 20.3646 235.847 39.4553 235.847 63.0049Z" fill="#21272A" fill-rule="nonzero" fill-opacity="1" transform="matrix(1 0 0 1 904 414)"/><path d="M129.705 155.397C120.603 179.165 119.986 209.989 120.178 223.906 120.238 228.277 123.15 232.14 127.291 233.535L134.423 235.94 140.08 238.213C143.812 239.711 146.312 243.267 146.46 247.285L150.572 358.791C150.774 364.265 155.27 368.599 160.747 368.599L226.033 368.599C231.511 368.599 236.007 364.265 236.209 358.791L240.32 247.295C240.469 243.271 242.974 239.713 246.711 238.217L252.403 235.938 259.644 233.521C263.799 232.134 266.717 228.264 266.762 223.884 266.902 209.955 266.171 179.152 257.074 155.397 245.281 124.601 235.846 123.413 226.411 119.859 216.976 116.305 174.52 116.306 162.727 119.859 150.933 123.412 141.498 124.601 129.705 155.397Z" fill="#21272A" fill-rule="nonzero" fill-opacity="1" transform="matrix(1 0 0 1 904 414)"/></g></g></g>
<!-- Person Circle TOP-->
<g><g><g><path d="M45.6001 24.0001C45.6001 35.9289 35.9293 45.6001 24.0001 45.6001 12.0708 45.6001 2.40001 35.9289 2.40001 24.0001 2.40001 12.0712 12.0708 2.40001 24.0001 2.40001 35.9293 2.40001 45.6001 12.0712 45.6001 24.0001" fill="#FFFFFF" fill-rule="nonzero" fill-opacity="1" transform="matrix(1 0 0 1.02083 1076 573)"/></g></g></g>

<!-- TOP BUS -->
<g><g><g><path d="M921 347.25C921 345.737 922.237 344.5 923.75 344.5L943 344.5 943 366.5 921 366.5 921 347.25ZM948.5 344.5 970.5 344.5 970.5 366.5 948.5 366.5 948.5 344.5ZM976 344.5 998 344.5 998 366.5 976 366.5 976 344.5ZM1003.5 344.5 1021.79 344.5C1024.4 344.5 1026.74 346.425 1027.15 349.037L1030.31 368.562C1030.59 370.625 1030.86 372.687 1030.86 374.75L1011.75 374.75 1003.5 366.5 1003.5 344.5ZM915.5 344.5 915.5 394C915.5 397.025 917.975 399.5 921 399.5L921.275 399.5C921.137 398.675 921 397.712 921 396.75 921 389.187 927.187 383 934.75 383 942.312 383 948.5 389.187 948.5 396.75 948.5 397.712 948.362 398.675 948.225 399.5L998.275 399.5C998.137 398.675 998 397.712 998 396.75 998 389.187 1004.19 383 1011.75 383 1019.31 383 1025.5 389.187 1025.5 396.75 1025.5 397.712 1025.36 398.675 1025.22 399.5L1031 399.5C1034.02 399.5 1036.5 397.025 1036.5 394L1036.5 376.4C1036.5 373.512 1036.22 370.487 1035.81 367.6L1032.65 347.937C1031.69 342.712 1027.15 338.862 1021.79 338.862L921 338.862C917.975 339 915.5 341.475 915.5 344.5Z" fill="#000000" fill-rule="nonzero" fill-opacity="1"/><path d="M1021.37 396.75C1021.37 402.066 1017.07 406.375 1011.75 406.375 1006.43 406.375 1002.12 402.066 1002.12 396.75 1002.12 391.434 1006.43 387.125 1011.75 387.125 1017.07 387.125 1021.37 391.434 1021.37 396.75Z" fill="#000000" fill-rule="nonzero" fill-opacity="1"/><path d="M944.375 396.75C944.375 402.066 940.066 406.375 934.75 406.375 929.434 406.375 925.125 402.066 925.125 396.75 925.125 391.434 929.434 387.125 934.75 387.125 940.066 387.125 944.375 391.434 944.375 396.75Z" fill="#000000" fill-rule="nonzero" fill-opacity="1"/></g></g></g>
<!-- Person TOP LEFT -->

<g><g><g><path d="M429.847 963.005C429.847 986.555 410.838 1005.65 387.39 1005.65 363.942 1005.65 344.934 986.555 344.934 963.005 344.934 939.455 363.942 920.365 387.39 920.365 410.838 920.365 429.847 939.455 429.847 963.005Z" fill="#21272A" fill-rule="nonzero" fill-opacity="1"/><path d="M323.705 1055.4C314.603 1079.17 313.986 1109.99 314.178 1123.91 314.238 1128.28 317.15 1132.14 321.291 1133.54L328.423 1135.94 334.08 1138.21C337.812 1139.71 340.312 1143.27 340.46 1147.29L344.572 1258.79C344.774 1264.27 349.27 1268.6 354.747 1268.6L420.033 1268.6C425.511 1268.6 430.007 1264.27 430.209 1258.79L434.32 1147.3C434.469 1143.27 436.974 1139.71 440.711 1138.22L446.403 1135.94 453.644 1133.52C457.799 1132.13 460.717 1128.26 460.762 1123.88 460.902 1109.95 460.171 1079.15 451.074 1055.4 439.281 1024.6 429.846 1023.41 420.411 1019.86 410.976 1016.31 368.52 1016.31 356.727 1019.86 344.933 1023.41 335.498 1024.6 323.705 1055.4Z" fill="#21272A" fill-rule="nonzero" fill-opacity="1"/></g></g></g>
<!-- Person Circle TOP LEFT -->

<g><g><g><path d="M45.5998 23.9999C45.5998 35.9286 35.929 45.5998 23.9999 45.5998 12.0707 45.5998 2.39999 35.9286 2.39999 23.9999 2.39999 12.0711 12.0707 2.39999 23.9999 2.39999 35.929 2.39999 45.5998 12.0711 45.5998 23.9999" fill="#FFFFFF" fill-rule="nonzero" fill-opacity="1" transform="matrix(1 0 0 1.02083 366 1058)"/></g></g></g>

<!-- LEFT BUS -->
<g><g><g><path d="M203 817.25C203 815.737 204.238 814.5 205.75 814.5L225 814.5 225 836.5 203 836.5 203 817.25ZM230.5 814.5 252.5 814.5 252.5 836.5 230.5 836.5 230.5 814.5ZM258 814.5 280 814.5 280 836.5 258 836.5 258 814.5ZM285.5 814.5 303.788 814.5C306.4 814.5 308.738 816.425 309.15 819.037L312.313 838.562C312.588 840.625 312.863 842.687 312.863 844.75L293.75 844.75 285.5 836.5 285.5 814.5ZM197.5 814.5 197.5 864C197.5 867.025 199.975 869.5 203 869.5L203.275 869.5C203.138 868.675 203 867.712 203 866.75 203 859.187 209.188 853 216.75 853 224.313 853 230.5 859.187 230.5 866.75 230.5 867.712 230.363 868.675 230.225 869.5L280.275 869.5C280.138 868.675 280 867.712 280 866.75 280 859.187 286.188 853 293.75 853 301.313 853 307.5 859.187 307.5 866.75 307.5 867.712 307.363 868.675 307.225 869.5L313 869.5C316.025 869.5 318.5 867.025 318.5 864L318.5 846.4C318.5 843.512 318.225 840.487 317.813 837.6L314.65 817.937C313.688 812.712 309.15 808.862 303.788 808.862L203 808.862C199.975 809 197.5 811.475 197.5 814.5Z" fill="#000000" fill-rule="nonzero" fill-opacity="1"/><path d="M303.375 866.75C303.375 872.066 299.066 876.375 293.75 876.375 288.434 876.375 284.125 872.066 284.125 866.75 284.125 861.434 288.434 857.125 293.75 857.125 299.066 857.125 303.375 861.434 303.375 866.75Z" fill="#000000" fill-rule="nonzero" fill-opacity="1"/><path d="M226.375 866.75C226.375 872.066 222.066 876.375 216.75 876.375 211.434 876.375 207.125 872.066 207.125 866.75 207.125 861.434 211.434 857.125 216.75 857.125 222.066 857.125 226.375 861.434 226.375 866.75Z" fill="#000000" fill-rule="nonzero" fill-opacity="1"/></g></g></g>

<!-- Person BOT LEFT -->

<g><g><g><path d="M655.847 1749.01C655.847 1772.55 636.838 1791.65 613.39 1791.65 589.942 1791.65 570.934 1772.55 570.934 1749.01 570.934 1725.46 589.942 1706.36 613.39 1706.36 636.838 1706.36 655.847 1725.46 655.847 1749.01Z" fill="#21272A" fill-rule="nonzero" fill-opacity="1"/><path d="M549.705 1841.4C540.603 1865.17 539.986 1895.99 540.178 1909.91 540.238 1914.28 543.15 1918.14 547.291 1919.53L554.423 1921.94 560.08 1924.21C563.812 1925.71 566.312 1929.27 566.46 1933.29L570.572 2044.79C570.774 2050.27 575.27 2054.6 580.747 2054.6L646.033 2054.6C651.511 2054.6 656.007 2050.27 656.209 2044.79L660.32 1933.3C660.469 1929.27 662.974 1925.71 666.711 1924.22L672.403 1921.94 679.644 1919.52C683.799 1918.13 686.717 1914.26 686.762 1909.88 686.902 1895.95 686.171 1865.15 677.074 1841.4 665.281 1810.6 655.846 1809.41 646.411 1805.86 636.976 1802.31 594.52 1802.31 582.727 1805.86 570.934 1809.41 561.498 1810.6 549.705 1841.4Z" fill="#21272A" fill-rule="nonzero" fill-opacity="1"/></g></g></g>

<text  fill="#000000" fill-opacity="1" font-family="Arial,Arial_MSFontService,sans-serif" font-style="normal" font-variant="normal" font-weight="400" font-stretch="normal" font-size="83" text-anchor="start" direction="ltr" writing-mode="lr-tb" unicode-bidi="normal" text-decoration="none" transform="matrix(1 0 0 1 446.738 1783)">I</text>

<g><g><g><path d="M45.6001 24.0001C45.6001 35.9289 35.9293 45.6001 24.0001 45.6001 12.0708 45.6001 2.40001 35.9289 2.40001 24.0001 2.40001 12.0712 12.0708 2.40001 24.0001 2.40001 35.9293 2.40001 45.6001 12.0712 45.6001 24.0001" fill="#FFFFFF" fill-rule="nonzero" fill-opacity="1" transform="matrix(1 0 0 1.02083 592 1845)"/></g></g></g><path d="M21.6638 8.22566 425.981 235.325 422.614 241.319 18.297 14.2198ZM17.243 25.4557 0 0 30.7103 1.47905ZM427.035 224.089 444.278 249.545 413.568 248.066Z" fill="#AEAEAE" fill-rule="nonzero" fill-opacity="1" transform="matrix(1 0 0 -1 502.5 936.045)"/><path d="M674 812.5C674 785.714 696.61 764 724.5 764 752.391 764 775 785.714 775 812.5 775 839.286 752.391 861 724.5 861 696.61 861 674 839.286 674 812.5Z" fill="#FFFFFF" fill-rule="evenodd" fill-opacity="1"/><g><g><g><path d="M724 757.75C695.135 757.742 671.728 781.135 671.72 810 671.711 838.865 695.104 862.272 723.97 862.28 752.835 862.289 776.242 838.895 776.25 810.03 776.25 810.025 776.25 810.019 776.25 810.014 776.265 781.164 752.891 757.765 724.041 757.75 724.027 757.75 724.014 757.75 724 757.75ZM724 859.529C696.654 859.537 674.478 837.375 674.47 810.029 674.461 782.682 696.623 760.507 723.97 760.498 751.316 760.49 773.492 782.652 773.5 809.998 773.5 810.005 773.5 810.011 773.5 810.018 773.473 837.347 751.329 859.497 724 859.533Z" fill="#000000" fill-rule="nonzero" fill-opacity="1"/><path d="M724.687 785.957 721.937 785.957 721.937 808.625 699.25 808.625 699.25 811.375 721.937 811.375 721.937 834.082 724.687 834.082 724.687 811.375 747.375 811.375 747.375 808.625 724.687 808.625 724.687 785.957Z" fill="#000000" fill-rule="nonzero" fill-opacity="1"/></g></g></g><path d="M1262.64 679.954 1621.27 961.688 1617.02 967.095 1258.4 685.36ZM1255.63 696.301 1242.5 668.5 1272.62 674.676ZM1624.04 950.748 1637.17 978.549 1607.05 972.373Z" fill="#AEAEAE" fill-rule="nonzero" fill-opacity="1"/><path d="M1380 807.5C1380 780.714 1402.39 759 1430 759 1457.61 759 1480 780.714 1480 807.5 1480 834.286 1457.61 856 1430 856 1402.39 856 1380 834.286 1380 807.5Z" fill="#FFFFFF" fill-rule="evenodd" fill-opacity="1"/><g><g><g><path d="M1430 752.75C1401.13 752.742 1377.73 776.135 1377.72 805 1377.71 833.865 1401.1 857.272 1429.97 857.28 1458.83 857.289 1482.24 833.896 1482.25 805.03 1482.25 805.025 1482.25 805.019 1482.25 805.014 1482.27 776.165 1458.89 752.765 1430.04 752.75 1430.03 752.75 1430.01 752.75 1430 752.75ZM1430 854.529C1402.65 854.537 1380.48 832.375 1380.47 805.029 1380.46 777.682 1402.62 755.507 1429.97 755.499 1457.32 755.49 1479.49 777.652 1479.5 804.999 1479.5 805.005 1479.5 805.011 1479.5 805.018 1479.47 832.347 1457.33 854.497 1430 854.533Z" fill="#000000" fill-rule="nonzero" fill-opacity="1"/><path d="M1430.69 780.957 1427.94 780.957 1427.94 803.625 1405.25 803.625 1405.25 806.375 1427.94 806.375 1427.94 829.082 1430.69 829.082 1430.69 806.375 1453.38 806.375 1453.38 803.625 1430.69 803.625 1430.69 780.957Z" fill="#000000" fill-rule="nonzero" fill-opacity="1"/></g></g></g><path d="M792.417 1899.06 1354.94 1899.06 1354.94 1905.94 792.417 1905.94ZM797 1916.25 769.5 1902.5 797 1888.75ZM1350.35 1888.75 1377.85 1902.5 1350.35 1916.25Z" fill="#AEAEAE" fill-rule="nonzero" fill-opacity="1"/><path d="M1026 1903.5C1026 1876.71 1048.61 1855 1076.5 1855 1104.39 1855 1127 1876.71 1127 1903.5 1127 1930.29 1104.39 1952 1076.5 1952 1048.61 1952 1026 1930.29 1026 1903.5Z" fill="#FFFFFF" fill-rule="evenodd" fill-opacity="1"/><g><g><g><path d="M1076 1849.75C1047.13 1849.74 1023.73 1873.13 1023.72 1902 1023.71 1930.87 1047.1 1954.27 1075.97 1954.28 1104.83 1954.29 1128.24 1930.9 1128.25 1902.03 1128.25 1902.02 1128.25 1902.02 1128.25 1902.01 1128.27 1873.16 1104.89 1849.77 1076.04 1849.75 1076.03 1849.75 1076.01 1849.75 1076 1849.75ZM1076 1951.53C1048.65 1951.54 1026.48 1929.38 1026.47 1902.03 1026.46 1874.68 1048.62 1852.51 1075.97 1852.5 1103.32 1852.49 1125.49 1874.65 1125.5 1902 1125.5 1902.01 1125.5 1902.01 1125.5 1902.02 1125.47 1929.35 1103.33 1951.5 1076 1951.53Z" fill="#000000" fill-rule="nonzero" fill-opacity="1"/><path d="M1076.69 1877.96 1073.94 1877.96 1073.94 1900.62 1051.25 1900.62 1051.25 1903.38 1073.94 1903.38 1073.94 1926.08 1076.69 1926.08 1076.69 1903.38 1099.38 1903.38 1099.38 1900.62 1076.69 1900.62 1076.69 1877.96Z" fill="#000000" fill-rule="nonzero" fill-opacity="1"/></g></g></g><path d="M13.719 18.6757 164.028 304.125 157.945 307.329 7.63581 21.879ZM0.646472 30.7391 0 0 24.9792 17.9263ZM171.017 295.265 171.664 326.004 146.684 308.078Z" fill="#AEAEAE" fill-rule="nonzero" fill-opacity="1" transform="matrix(1 0 0 -1 1637.5 1674.5)"/><path d="M577.254 1642.24 422.128 1347.38 428.212 1344.18 583.338 1639.04ZM590.331 1630.18 590.966 1660.92 565.994 1642.99ZM415.135 1356.24 414.5 1325.5 439.473 1343.44Z" fill="#AEAEAE" fill-rule="nonzero" fill-opacity="1"/><path d="M1673 1512.5C1673 1485.71 1695.61 1464 1723.5 1464 1751.39 1464 1774 1485.71 1774 1512.5 1774 1539.29 1751.39 1561 1723.5 1561 1695.61 1561 1673 1539.29 1673 1512.5Z" fill="#FFFFFF" fill-rule="evenodd" fill-opacity="1"/><g><g><g><path d="M1723 1458.75C1694.13 1458.74 1670.73 1482.13 1670.72 1511 1670.71 1539.87 1694.1 1563.27 1722.97 1563.28 1751.83 1563.29 1775.24 1539.9 1775.25 1511.03 1775.25 1511.02 1775.25 1511.02 1775.25 1511.01 1775.27 1482.16 1751.89 1458.77 1723.04 1458.75 1723.03 1458.75 1723.01 1458.75 1723 1458.75ZM1723 1560.53C1695.65 1560.54 1673.48 1538.38 1673.47 1511.03 1673.46 1483.68 1695.62 1461.51 1722.97 1461.5 1750.32 1461.49 1772.49 1483.65 1772.5 1511 1772.5 1511.01 1772.5 1511.01 1772.5 1511.02 1772.47 1538.35 1750.33 1560.5 1723 1560.53Z" fill="#000000" fill-rule="nonzero" fill-opacity="1"/><path d="M1723.69 1486.96 1720.94 1486.96 1720.94 1509.63 1698.25 1509.63 1698.25 1512.38 1720.94 1512.38 1720.94 1535.08 1723.69 1535.08 1723.69 1512.38 1746.37 1512.38 1746.37 1509.63 1723.69 1509.63 1723.69 1486.96Z" fill="#000000" fill-rule="nonzero" fill-opacity="1"/></g></g></g><path d="M452 1489.5C452 1462.71 474.61 1441 502.5 1441 530.39 1441 553 1462.71 553 1489.5 553 1516.29 530.39 1538 502.5 1538 474.61 1538 452 1516.29 452 1489.5Z" fill="#FFFFFF" fill-rule="evenodd" fill-opacity="1"/><g><g><g><path d="M502 1435.75C473.135 1435.74 449.728 1459.13 449.72 1488 449.711 1516.87 473.104 1540.27 501.97 1540.28 530.835 1540.29 554.241 1516.9 554.25 1488.03 554.25 1488.02 554.25 1488.02 554.25 1488.01 554.265 1459.16 530.89 1435.77 502.041 1435.75 502.027 1435.75 502.014 1435.75 502 1435.75ZM502 1537.53C474.653 1537.54 452.478 1515.38 452.47 1488.03 452.461 1460.68 474.623 1438.51 501.97 1438.5 529.316 1438.49 551.491 1460.65 551.5 1488 551.5 1488.01 551.5 1488.01 551.5 1488.02 551.473 1515.35 529.329 1537.5 502 1537.53Z" fill="#000000" fill-rule="nonzero" fill-opacity="1"/><path d="M502.687 1463.96 499.937 1463.96 499.937 1486.63 477.25 1486.63 477.25 1489.38 499.937 1489.38 499.937 1512.08 502.687 1512.08 502.687 1489.38 525.375 1489.38 525.375 1486.63 502.687 1486.63 502.687 1463.96Z" fill="#000000" fill-rule="nonzero" fill-opacity="1"/></g></g></g><path d="M560.417 1116.06 1680.15 1116.06 1680.15 1122.94 560.417 1122.94ZM565 1133.25 537.5 1119.5 565 1105.75ZM1675.57 1105.75 1703.07 1119.5 1675.57 1133.25Z" fill="#AEAEAE" fill-rule="nonzero" fill-opacity="1"/><path d="M3.43751 22.9171 3.43785 897.226-3.43715 897.226-3.43749 22.9171ZM-13.75 27.5 0 0 13.75 27.5ZM13.7503 892.642 0.000360892 920.142-13.7497 892.642Z" fill="#AEAEAE" fill-rule="nonzero" fill-opacity="1" transform="matrix(1 0 0 -1 1088.5 1786.64)"/><path d="M759 1120.5C759 1093.71 781.386 1072 809 1072 836.614 1072 859 1093.71 859 1120.5 859 1147.29 836.614 1169 809 1169 781.386 1169 759 1147.29 759 1120.5Z" fill="#FFFFFF" fill-rule="evenodd" fill-opacity="1"/><g><g><g><path d="M808 1066.75C779.135 1066.74 755.728 1090.13 755.72 1119 755.712 1147.87 779.105 1171.27 807.97 1171.28 836.835 1171.29 860.242 1147.9 860.25 1119.03 860.25 1119.02 860.25 1119.02 860.25 1119.01 860.265 1090.16 836.891 1066.77 808.041 1066.75 808.028 1066.75 808.014 1066.75 808 1066.75ZM808 1168.53C780.654 1168.54 758.478 1146.38 758.47 1119.03 758.462 1091.68 780.624 1069.51 807.97 1069.5 835.316 1069.49 857.492 1091.65 857.5 1119 857.5 1119.01 857.5 1119.01 857.5 1119.02 857.473 1146.35 835.329 1168.5 808 1168.53Z" fill="#000000"  fill-rule="nonzero" fill-opacity="1"/><path d="M808.688 1094.96 805.938 1094.96 805.938 1117.62 783.25 1117.62 783.25 1120.37 805.938 1120.37 805.938 1143.08 808.688 1143.08 808.688 1120.37 831.375 1120.37 831.375 1117.62 808.688 1117.62 808.688 1094.96Z" fill="#000000" fill-rule="nonzero" fill-opacity="1"/></g></g></g><path d="M1041 1292.5C1041 1265.71 1063.61 1244 1091.5 1244 1119.39 1244 1142 1265.71 1142 1292.5 1142 1319.29 1119.39 1341 1091.5 1341 1063.61 1341 1041 1319.29 1041 1292.5Z" fill="#FFFFFF" fill-rule="evenodd" fill-opacity="1"/><g><g><g><path d="M1091 1238.75C1062.13 1238.74 1038.73 1262.13 1038.72 1291 1038.71 1319.87 1062.1 1343.27 1090.97 1343.28 1119.84 1343.29 1143.24 1319.9 1143.25 1291.03 1143.25 1291.02 1143.25 1291.02 1143.25 1291.01 1143.27 1262.16 1119.89 1238.77 1091.04 1238.75 1091.03 1238.75 1091.01 1238.75 1091 1238.75ZM1091 1340.53C1063.65 1340.54 1041.48 1318.38 1041.47 1291.03 1041.46 1263.68 1063.62 1241.51 1090.97 1241.5 1118.32 1241.49 1140.49 1263.65 1140.5 1291 1140.5 1291.01 1140.5 1291.01 1140.5 1291.02 1140.47 1318.35 1118.33 1340.5 1091 1340.53Z" fill="#000000" fill-rule="nonzero" fill-opacity="1"/><path d="M1091.69 1266.96 1088.94 1266.96 1088.94 1289.63 1066.25 1289.63 1066.25 1292.38 1088.94 1292.38 1088.94 1315.08 1091.69 1315.08 1091.69 1292.38 1114.38 1292.38 1114.38 1289.63 1091.69 1289.63 1091.69 1266.96Z" fill="#000000" fill-rule="nonzero" fill-opacity="1"/></g></g></g><path d="M21.4174 8.85817 976.806 582.895 973.265 588.788 17.8766 14.7512ZM16.4907 25.9494 0 0 30.6539 2.37705ZM978.185 571.693 994.676 597.642 964.022 595.265Z" fill="#AEAEAE" fill-rule="nonzero" fill-opacity="1" transform="matrix(1 0 0 -1 708.5 1786.14)"/><path d="M1361.17 1743.57 494.895 1184.81 498.621 1179.03 1364.9 1737.79ZM1366.63 1726.64 1382.29 1753.1 1351.73 1749.75ZM493.157 1195.96 477.5 1169.5 508.063 1172.85Z" fill="#AEAEAE" fill-rule="nonzero" fill-opacity="1"/><path d="M1390 1354.5C1390 1327.71 1412.61 1306 1440.5 1306 1468.39 1306 1491 1327.71 1491 1354.5 1491 1381.29 1468.39 1403 1440.5 1403 1412.61 1403 1390 1381.29 1390 1354.5Z" fill="#FFFFFF" fill-rule="evenodd" fill-opacity="1"/><g><g><g><path d="M1440 1300.75C1411.13 1300.74 1387.73 1324.13 1387.72 1353 1387.71 1381.87 1411.1 1405.27 1439.97 1405.28 1468.83 1405.29 1492.24 1381.9 1492.25 1353.03 1492.25 1353.02 1492.25 1353.02 1492.25 1353.01 1492.27 1324.16 1468.89 1300.77 1440.04 1300.75 1440.03 1300.75 1440.01 1300.75 1440 1300.75ZM1440 1402.53C1412.65 1402.54 1390.48 1380.38 1390.47 1353.03 1390.46 1325.68 1412.62 1303.51 1439.97 1303.5 1467.32 1303.49 1489.49 1325.65 1489.5 1353 1489.5 1353.01 1489.5 1353.01 1489.5 1353.02 1489.47 1380.35 1467.33 1402.5 1440 1402.53Z" fill="#000000" fill-rule="nonzero" fill-opacity="1"/><path d="M1440.69 1328.96 1437.94 1328.96 1437.94 1351.62 1415.25 1351.62 1415.25 1354.38 1437.94 1354.38 1437.94 1377.08 1440.69 1377.08 1440.69 1354.38 1463.38 1354.38 1463.38 1351.62 1440.69 1351.62 1440.69 1328.96Z" fill="#000000" fill-rule="nonzero" fill-opacity="1"/></g></g></g><path d="M686 1348.5C686 1321.71 708.386 1300 736 1300 763.614 1300 786 1321.71 786 1348.5 786 1375.29 763.614 1397 736 1397 708.386 1397 686 1375.29 686 1348.5Z" fill="#FFFFFF" fill-rule="evenodd" fill-opacity="1"/><g><g><g><path d="M736 1294.75C707.135 1294.74 683.728 1318.13 683.72 1347 683.711 1375.87 707.104 1399.27 735.97 1399.28 764.835 1399.29 788.242 1375.9 788.25 1347.03 788.25 1347.02 788.25 1347.02 788.25 1347.01 788.265 1318.16 764.891 1294.77 736.041 1294.75 736.027 1294.75 736.014 1294.75 736 1294.75ZM736 1396.53C708.654 1396.54 686.478 1374.38 686.47 1347.03 686.461 1319.68 708.623 1297.51 735.97 1297.5 763.316 1297.49 785.492 1319.65 785.5 1347 785.5 1347.01 785.5 1347.01 785.5 1347.02 785.473 1374.35 763.329 1396.5 736 1396.53Z" fill="#000000" fill-rule="nonzero" fill-opacity="1"/><path d="M736.687 1322.96 733.937 1322.96 733.937 1345.63 711.25 1345.63 711.25 1348.38 733.937 1348.38 733.937 1371.08 736.687 1371.08 736.687 1348.38 759.375 1348.38 759.375 1345.63 736.687 1345.63 736.687 1322.96Z" fill="#000000" fill-rule="nonzero" fill-opacity="1"/></g></g></g></g></g>
</svg>