<?xml version="1.0" encoding="UTF-8"?>
<svg width="1200pt" height="1200pt" version="1.1" viewBox="0 0 1200 1200" xmlns="http://www.w3.org/2000/svg">
 <g>
  <path d="m600.02 399.42c82.227 0 149.12-66.898 149.12-149.14 0-82.227-66.898-149.13-149.12-149.13-82.238 0-149.16 66.898-149.16 149.13 0 82.238 66.91 149.14 149.16 149.14z"/>
  <path d="m769.17 441.7h-338.34c-45.629 0-82.754 37.125-82.754 82.754v184.38c0 45.629 37.125 82.754 82.754 82.754h23.371c10.352 0 18.75 8.3984 18.75 18.75v215.83c0 40.07 32.605 72.664 72.664 72.664h108.77c40.059 0 72.664-32.598 72.664-72.664l0.003906-215.82c0-10.352 8.3984-18.75 18.75-18.75h23.371c45.629 0 82.754-37.125 82.754-82.754v-184.39c0-45.629-37.125-82.754-82.754-82.754z"/>
 </g>
</svg>
