<?xml version="1.0" encoding="UTF-8"?>
<svg width="1200pt" height="1200pt" version="1.1" viewBox="0 0 1200 1200" xmlns="http://www.w3.org/2000/svg">
 <path d="m1152.2 600c0 304.97-247.22 552.19-552.19 552.19-304.92 0-552.19-247.22-552.19-552.19s247.22-552.19 552.19-552.19 552.19 247.22 552.19 552.19zm-552.19 351.52c31.266 0 56.625-25.359 56.625-56.625s-25.359-56.625-56.625-56.625-56.625 25.359-56.625 56.625 25.359 56.625 56.625 56.625zm-220.69-479.53h106.88c0-31.453 12.656-59.859 33.141-80.25 44.391-44.344 116.95-44.344 161.39 0 55.172 55.078 39.047 148.36-30.469 182.44-64.594 31.641-103.69 94.031-103.69 165.71v53.719h106.88v-53.719c0-31.031 15.891-56.578 43.547-70.125 75.188-36.844 123.71-112.97 123.71-197.76 0-121.4-99.047-220.36-220.69-220.36-121.64 0-220.69 98.953-220.69 220.36z" fill-rule="evenodd"/>
</svg>
