<?xml version="1.0" encoding="utf-8"?>
<!-- Generator: Adobe Illustrator 27.9.0, SVG Export Plug-In . SVG Version: 6.00 Build 0)  -->
<svg version="1.1" id="Layer_1" xmlns="http://www.w3.org/2000/svg" xmlns:xlink="http://www.w3.org/1999/xlink" x="0px" y="0px"
	 viewBox="0 0 283.465 283.465" enable-background="new 0 0 283.465 283.465" xml:space="preserve">
<g id="Background" display="none">
	<rect y="0" display="inline" fill="#FFFFFF" width="283.465" height="283.465"/>
</g>
<g id="Layer_1_00000019647940494361628630000008426632793106136999_">
	<g>
		<path d="M141.732,67.413c-5.293,0-9.585-6.069-9.585-13.555s4.292-13.554,9.585-13.554c5.294,0,9.585,6.068,9.585,13.554
			S147.026,67.413,141.732,67.413z"/>
		<path fill-opacity="0" stroke="#000000" stroke-width="3" stroke-linecap="round" stroke-linejoin="round" d="M141.732,67.413
			c-5.293,0-9.585-6.069-9.585-13.555s4.292-13.554,9.585-13.554c5.294,0,9.585,6.068,9.585,13.554S147.026,67.413,141.732,67.413z"
			/>
	</g>
	<g>
		<path fill="#FFFFFF" d="M141.732,229.253c-48.336,0-87.52-39.184-87.52-87.521c0-48.336,39.184-87.52,87.52-87.52
			c48.337,0,87.521,39.184,87.521,87.52C229.253,190.069,190.069,229.253,141.732,229.253z"/>
		<path fill-opacity="0" stroke="#000000" stroke-width="3" stroke-linecap="round" stroke-linejoin="round" d="M141.732,229.253
			c-48.336,0-87.52-39.184-87.52-87.521c0-48.336,39.184-87.52,87.52-87.52c48.337,0,87.521,39.184,87.521,87.52
			C229.253,190.069,190.069,229.253,141.732,229.253z"/>
	</g>
	<path fill-opacity="0" stroke="#000000" stroke-width="3" stroke-linecap="round" stroke-linejoin="round" d="M141.732,209.731
		c-37.555,0-67.999-30.444-67.999-67.999s30.444-67.999,67.999-67.999s67.999,30.444,67.999,67.999S179.287,209.731,141.732,209.731
		z"/>
	<g enable-background="new    ">
		<path d="M148.087,104.815l-1.23-3.234H136.38l-1.23,3.305c-0.48,1.289-0.891,2.159-1.23,2.61s-0.896,0.677-1.67,0.677
			c-0.656,0-1.236-0.24-1.74-0.721s-0.756-1.025-0.756-1.635c0-0.352,0.059-0.715,0.176-1.09s0.311-0.896,0.58-1.564l6.592-16.734
			c0.188-0.48,0.413-1.058,0.677-1.731s0.545-1.233,0.844-1.679s0.691-0.806,1.178-1.081s1.087-0.413,1.802-0.413
			c0.727,0,1.333,0.138,1.819,0.413s0.879,0.63,1.178,1.063s0.551,0.899,0.756,1.397s0.466,1.163,0.782,1.995l6.732,16.629
			c0.527,1.266,0.791,2.186,0.791,2.76c0,0.598-0.249,1.146-0.747,1.644s-1.099,0.747-1.802,0.747c-0.41,0-0.762-0.073-1.055-0.22
			s-0.539-0.346-0.738-0.598s-0.413-0.639-0.642-1.16S148.251,105.213,148.087,104.815z M137.751,97.661h7.699l-3.885-10.635
			L137.751,97.661z"/>
	</g>
	<g enable-background="new    ">
		<path d="M150.029,180.467h-5.695v18.721c0,1.078-0.24,1.878-0.721,2.399s-1.102,0.782-1.864,0.782
			c-0.773,0-1.403-0.264-1.89-0.791s-0.729-1.324-0.729-2.391v-18.721h-5.695c-0.891,0-1.553-0.196-1.986-0.589
			s-0.65-0.911-0.65-1.556c0-0.668,0.226-1.195,0.677-1.582s1.104-0.58,1.96-0.58h16.594c0.902,0,1.573,0.199,2.013,0.598
			s0.659,0.92,0.659,1.564s-0.223,1.163-0.668,1.556S150.92,180.467,150.029,180.467z"/>
	</g>
	<g enable-background="new    ">
		<path d="M104.987,146.093c0,0.82-0.202,1.708-0.606,2.663s-1.04,1.893-1.907,2.812s-1.975,1.667-3.322,2.241
			s-2.918,0.861-4.711,0.861c-1.359,0-2.596-0.129-3.709-0.387s-2.124-0.659-3.032-1.204s-1.743-1.263-2.505-2.153
			c-0.68-0.809-1.26-1.714-1.74-2.716s-0.841-2.071-1.081-3.208s-0.36-2.344-0.36-3.621c0-2.074,0.302-3.932,0.905-5.572
			s1.468-3.044,2.593-4.21s2.443-2.054,3.955-2.663s3.123-0.914,4.834-0.914c2.086,0,3.943,0.416,5.572,1.248
			s2.877,1.86,3.744,3.085s1.301,2.382,1.301,3.472c0,0.598-0.211,1.125-0.633,1.582s-0.932,0.686-1.529,0.686
			c-0.668,0-1.169-0.158-1.503-0.475s-0.706-0.861-1.116-1.635c-0.68-1.277-1.479-2.232-2.399-2.865s-2.054-0.949-3.401-0.949
			c-2.145,0-3.853,0.814-5.124,2.443s-1.907,3.943-1.907,6.943c0,2.004,0.281,3.671,0.844,5.001s1.359,2.323,2.391,2.979
			s2.238,0.984,3.621,0.984c1.5,0,2.769-0.372,3.806-1.116s1.819-1.837,2.347-3.278c0.223-0.68,0.498-1.233,0.826-1.661
			s0.855-0.642,1.582-0.642c0.621,0,1.154,0.217,1.6,0.65S104.987,145.449,104.987,146.093z"/>
	</g>
	<g enable-background="new    ">
		<path d="M199.181,143.755v4.939c0,0.656-0.064,1.181-0.193,1.573s-0.366,0.747-0.712,1.063s-0.788,0.621-1.327,0.914
			c-1.559,0.844-3.059,1.459-4.5,1.846s-3.012,0.58-4.711,0.58c-1.98,0-3.785-0.305-5.414-0.914s-3.018-1.494-4.166-2.654
			s-2.03-2.566-2.646-4.219s-0.923-3.498-0.923-5.537c0-2.004,0.299-3.838,0.896-5.502s1.477-3.076,2.637-4.236
			s2.572-2.048,4.236-2.663s3.551-0.923,5.66-0.923c1.734,0,3.27,0.231,4.605,0.694s2.42,1.046,3.252,1.749s1.459,1.447,1.881,2.232
			s0.633,1.482,0.633,2.092c0,0.656-0.243,1.216-0.729,1.679s-1.069,0.694-1.749,0.694c-0.375,0-0.735-0.088-1.081-0.264
			s-0.636-0.422-0.87-0.738c-0.645-1.008-1.189-1.77-1.635-2.285s-1.046-0.949-1.802-1.301s-1.72-0.527-2.892-0.527
			c-1.207,0-2.285,0.208-3.234,0.624s-1.761,1.02-2.435,1.811s-1.189,1.761-1.547,2.909s-0.536,2.42-0.536,3.814
			c0,3.023,0.694,5.35,2.083,6.979s3.325,2.443,5.81,2.443c1.207,0,2.341-0.158,3.401-0.475s2.136-0.768,3.226-1.354v-4.184h-4.043
			c-0.973,0-1.708-0.146-2.206-0.439s-0.747-0.791-0.747-1.494c0-0.574,0.208-1.049,0.624-1.424s0.981-0.562,1.696-0.562h5.924
			c0.727,0,1.342,0.064,1.846,0.193s0.911,0.416,1.222,0.861S199.181,142.865,199.181,143.755z"/>
	</g>
	<path fill-opacity="0" stroke="#000000" stroke-width="3" stroke-linecap="round" stroke-linejoin="round" d="M141.732,46.136
		c-8.005,0-14.495-6.49-14.495-14.496c0-8.005,6.49-14.495,14.495-14.495c8.006,0,14.496,6.49,14.496,14.495
		C156.228,39.646,149.738,46.136,141.732,46.136z"/>
	<g>
		<path d="M132.52,141.732l9.212-25.512l9.213,25.512H132.52z"/>
		<path fill-opacity="0" stroke="#000000" stroke-linecap="round" d="M132.52,141.732l9.212-25.512l9.213,25.512H132.52z"/>
	</g>
	<g>
		<path d="M150.945,141.732l-9.213,25.512l-9.212-25.512H150.945z"/>
		<path fill-opacity="0" stroke="#000000" stroke-linecap="round" d="M150.945,141.732l-9.213,25.512l-9.212-25.512H150.945z"/>
	</g>
	<g>
		<path d="M141.732,150.945l-25.512-9.213l25.512-9.212V150.945z"/>
		<path fill-opacity="0" stroke="#000000" stroke-linecap="round" d="M141.732,150.945l-25.512-9.213l25.512-9.212V150.945z"/>
	</g>
	<g>
		<path d="M141.732,132.52l25.512,9.212l-25.512,9.213V132.52z"/>
		<path fill-opacity="0" stroke="#000000" stroke-linecap="round" d="M141.732,132.52l25.512,9.212l-25.512,9.213V132.52z"/>
	</g>
</g>
<g className={
          spin
            ? "pointer-events-none origin-center transition-transform duration-1000 [transition-timing-function:cubic-bezier(.39,-0.81,0,1.6)] peer-hover:rotate-[320deg] peer-hover:transition-transform peer-hover:duration-1000 peer-hover:[transition-timing-function:cubic-bezier(.39,-0.81,0,1.6)]"
            : ""
        }

id="Layer_2_00000058561847289100292710000012473239956861332393_">
	<g>
		<path fill="#FFA5A5" d="M175.906,99.262c-1.272,3.751-2.02,7.701-3.418,11.421c-13.872,36.893-58.447,49.981-62.591,74.915
			 M109.897,185.598c-3.661-39.698,51.108-55.335,66.009-86.336"/>
		<path fill-opacity="0" stroke="#9F1F1F" stroke-width="2" stroke-linecap="round" stroke-linejoin="round" d="M175.906,99.262
			c-1.272,3.751-2.02,7.701-3.418,11.421c-13.872,36.893-58.447,49.981-62.591,74.915 M109.897,185.598
			c-3.661-39.698,51.108-55.335,66.009-86.336"/>
	</g>
	<path fill-opacity="0" stroke="#000000" stroke-width="3" stroke-linecap="round" stroke-linejoin="round" d="M141.732,143.233
		c-0.829,0-1.501-0.672-1.501-1.501c0-0.829,0.672-1.501,1.501-1.501c0.829,0,1.501,0.672,1.501,1.501
		C143.233,142.561,142.561,143.233,141.732,143.233z"/>
</g>
<g id="Layer_3">
	<g>
		<path d="M66.196,163.434l-0.575-2.061l-3.49,0.973l-0.562-2.015l9.706-2.707l1.179,4.227c0.272,0.975,0.239,1.821-0.1,2.54
			c-0.339,0.719-1.033,1.225-2.082,1.518c-1.146,0.319-2.037,0.256-2.672-0.191C66.964,165.271,66.496,164.509,66.196,163.434z
			 M69.698,163.904c0.505-0.141,0.828-0.374,0.969-0.699c0.141-0.326,0.145-0.728,0.011-1.206l-0.527-1.89l-2.858,0.797l0.528,1.89
			c0.133,0.479,0.353,0.818,0.66,1.018C68.788,164.015,69.193,164.045,69.698,163.904z"/>
		<path d="M73.803,165.803l0.636,1.842l-9.524,3.289l-0.636-1.841L73.803,165.803z"/>
		<path d="M69.466,171.573c0.363,0.261,0.742,0.715,1.138,1.362l0.347,0.571c0.189,0.309,0.347,0.521,0.473,0.634
			c0.222,0.205,0.447,0.256,0.676,0.153c0.278-0.125,0.427-0.308,0.446-0.549c0.019-0.241-0.056-0.548-0.224-0.923
			c-0.189-0.419-0.426-0.67-0.713-0.751c-0.21-0.055-0.455-0.045-0.736,0.031l-0.771-1.714c0.611-0.23,1.174-0.283,1.689-0.16
			c0.81,0.2,1.472,0.871,1.986,2.014c0.335,0.744,0.485,1.471,0.45,2.182c-0.035,0.711-0.462,1.25-1.281,1.618l-3.117,1.403
			c-0.216,0.097-0.476,0.219-0.78,0.366c-0.227,0.117-0.369,0.224-0.426,0.319c-0.057,0.095-0.086,0.213-0.088,0.354l-0.261,0.118
			l-0.87-1.932c0.113-0.116,0.225-0.212,0.336-0.287c0.111-0.075,0.241-0.153,0.389-0.235c-0.377-0.125-0.73-0.306-1.061-0.542
			c-0.393-0.283-0.697-0.665-0.914-1.148c-0.277-0.615-0.33-1.202-0.159-1.761c0.171-0.559,0.578-0.983,1.222-1.273
			C68.052,171.047,68.802,171.097,69.466,171.573z M68.494,175.309c0.368,0.219,0.852,0.201,1.452-0.054l0.661-0.298
			c-0.121-0.08-0.229-0.167-0.324-0.262c-0.095-0.095-0.207-0.233-0.334-0.416l-0.254-0.365c-0.235-0.345-0.436-0.576-0.605-0.695
			c-0.285-0.201-0.599-0.225-0.94-0.072c-0.303,0.137-0.485,0.319-0.544,0.548c-0.059,0.229-0.035,0.464,0.074,0.705
			C67.852,174.783,68.123,175.086,68.494,175.309z"/>
		<path d="M75.066,178.525c-0.205-0.093-0.384-0.096-0.539-0.008c-0.194,0.111-0.287,0.274-0.28,0.489
			c0.004,0.219,0.182,0.896,0.535,2.032c0.225,0.763,0.272,1.405,0.143,1.924c-0.135,0.518-0.447,0.915-0.934,1.192
			c-0.641,0.365-1.301,0.425-1.979,0.179c-0.677-0.247-1.3-0.869-1.868-1.867c-0.579-1.018-0.792-1.892-0.638-2.621
			c0.153-0.73,0.563-1.284,1.228-1.663l0.977,1.717c-0.281,0.207-0.45,0.406-0.509,0.597c-0.107,0.338,0.001,0.79,0.324,1.357
			c0.189,0.333,0.389,0.569,0.599,0.709c0.211,0.139,0.415,0.153,0.613,0.04c0.191-0.108,0.29-0.269,0.299-0.484
			s-0.156-0.9-0.493-2.056c-0.235-0.836-0.301-1.482-0.199-1.939c0.098-0.455,0.4-0.826,0.907-1.114
			c0.598-0.341,1.246-0.399,1.943-0.174c0.697,0.225,1.287,0.764,1.772,1.615c0.459,0.808,0.673,1.558,0.64,2.251
			c-0.033,0.693-0.425,1.302-1.174,1.828l-0.964-1.693c0.205-0.148,0.342-0.307,0.412-0.478c0.124-0.317,0.059-0.7-0.196-1.147
			C75.476,178.842,75.269,178.614,75.066,178.525z"/>
		<path d="M79.497,186.669c0.189-0.348,0.139-0.713-0.15-1.095c-0.335-0.443-0.704-0.633-1.107-0.569
			c-0.227,0.04-0.502,0.182-0.825,0.427l-3.578,2.704l-1.191-1.576l5.934-4.484l1.141,1.51l-0.867,0.656
			c0.455-0.041,0.812-0.026,1.072,0.046c0.461,0.126,0.872,0.429,1.235,0.909c0.344,0.455,0.522,0.897,0.533,1.328
			c-0.015,0.366-0.124,0.717-0.327,1.053c0.503-0.06,0.95-0.001,1.342,0.177c0.405,0.196,0.756,0.49,1.053,0.883
			c0.198,0.262,0.342,0.559,0.433,0.89s0.087,0.697-0.011,1.097c-0.081,0.323-0.251,0.628-0.508,0.915
			c-0.173,0.187-0.452,0.427-0.837,0.718l-3.755,2.82l-1.204-1.592l3.785-2.86c0.225-0.171,0.383-0.347,0.474-0.53
			c0.172-0.347,0.118-0.706-0.162-1.077c-0.325-0.429-0.727-0.59-1.207-0.485c-0.252,0.059-0.511,0.189-0.776,0.39l-3.54,2.675
			l-1.183-1.565l3.54-2.675C79.164,187.092,79.392,186.862,79.497,186.669z"/>
		<path d="M89.311,196.368c-0.131,0.999-0.584,1.872-1.359,2.619c-0.788,0.759-1.68,1.181-2.676,1.267
			c-0.996,0.086-1.938-0.332-2.826-1.255c-0.889-0.922-1.271-1.879-1.148-2.871c0.123-0.992,0.579-1.867,1.367-2.626
			c0.775-0.746,1.664-1.166,2.668-1.26c1.004-0.094,1.95,0.32,2.839,1.242C89.064,194.407,89.442,195.368,89.311,196.368z
			 M87.462,195.985c0.077-0.498-0.083-0.952-0.478-1.363c-0.395-0.41-0.844-0.586-1.348-0.528c-0.504,0.058-1.025,0.346-1.563,0.865
			c-0.539,0.519-0.847,1.029-0.926,1.532c-0.079,0.503,0.08,0.96,0.475,1.37c0.395,0.411,0.844,0.585,1.348,0.523
			c0.504-0.061,1.025-0.351,1.564-0.869C87.072,196.996,87.381,196.486,87.462,195.985z"/>
		<path d="M89.234,200.255c-0.507,0.597-0.805,1.205-0.893,1.824c-0.089,0.618,0.147,1.164,0.707,1.639
			c0.434,0.369,0.949,0.485,1.546,0.349c0.597-0.137,1.191-0.554,1.784-1.252c0.599-0.706,0.897-1.351,0.896-1.934
			c-0.001-0.583-0.213-1.055-0.637-1.415c-0.473-0.401-1.009-0.545-1.609-0.433C90.427,199.146,89.829,199.553,89.234,200.255z
			 M93.154,198.497c0.427,0.363,0.709,0.757,0.844,1.183c0.078,0.245,0.113,0.588,0.104,1.029l2.392-2.82l0.902,0.765l-6.518,7.684
			l-0.845-0.717l0.659-0.777c-0.511,0.159-0.98,0.188-1.409,0.087c-0.429-0.101-0.836-0.315-1.221-0.642
			c-0.623-0.527-0.94-1.246-0.951-2.155c-0.011-0.909,0.351-1.798,1.088-2.667c0.69-0.813,1.495-1.342,2.416-1.586
			C91.536,197.638,92.383,197.843,93.154,198.497z"/>
		<path d="M96.822,201.644l0.989,0.767l-4.466,5.758l-0.989-0.766L96.822,201.644z M98.51,199.468l0.989,0.766l-0.855,1.102
			l-0.988-0.767L98.51,199.468z"/>
		<path d="M99.864,203.747l-2.632,4.086c-0.202,0.314-0.317,0.603-0.346,0.866c-0.053,0.487,0.171,0.891,0.673,1.214
			c0.721,0.464,1.418,0.458,2.093-0.018c0.364-0.253,0.74-0.681,1.127-1.282l1.947-3.023l1.035,0.666l-3.965,6.155l-0.977-0.629
			l0.597-0.901c-0.285,0.147-0.579,0.237-0.882,0.27c-0.601,0.068-1.184-0.079-1.747-0.442c-0.877-0.565-1.286-1.243-1.227-2.034
			c0.03-0.425,0.214-0.901,0.552-1.426l2.695-4.184L99.864,203.747z"/>
		<path d="M104.531,206.898l1.099,0.522l-0.446,0.938c0.418-0.2,0.769-0.323,1.054-0.369c0.485-0.077,0.961-0.005,1.426,0.216
			c0.527,0.25,0.889,0.581,1.087,0.993c0.111,0.235,0.172,0.531,0.183,0.889c0.415-0.237,0.83-0.361,1.245-0.373
			c0.415-0.013,0.83,0.08,1.245,0.278c0.889,0.423,1.342,1.031,1.358,1.826c0.008,0.427-0.127,0.933-0.404,1.518l-2.092,4.402
			l-1.155-0.548l2.183-4.594c0.209-0.441,0.243-0.795,0.101-1.064c-0.142-0.269-0.371-0.479-0.688-0.63
			c-0.437-0.207-0.882-0.24-1.335-0.098c-0.454,0.143-0.843,0.556-1.168,1.239l-1.828,3.847l-1.13-0.537l2.051-4.316
			c0.213-0.449,0.315-0.801,0.306-1.058c-0.022-0.389-0.263-0.693-0.724-0.912c-0.42-0.199-0.879-0.218-1.378-0.056
			c-0.498,0.161-0.949,0.668-1.354,1.52l-1.667,3.507l-1.111-0.528L104.531,206.898z"/>
		<path d="M122.352,212.64c-0.783-0.213-1.506-0.093-2.171,0.36c-0.665,0.454-1.159,1.275-1.483,2.462
			c-0.327,1.196-0.285,2.117,0.124,2.762c0.41,0.645,0.962,1.063,1.657,1.253c0.681,0.186,1.293,0.142,1.836-0.133
			s0.951-0.717,1.226-1.327l-2.248-0.614l0.443-1.622l4.049,1.105l-1.424,5.217l-1.346-0.368l0.127-1.269
			c-0.517,0.355-0.958,0.584-1.321,0.688c-0.627,0.183-1.331,0.168-2.114-0.045c-1.288-0.352-2.221-1.086-2.8-2.203
			c-0.612-1.131-0.706-2.475-0.281-4.031c0.429-1.574,1.207-2.718,2.332-3.431c1.125-0.713,2.4-0.875,3.825-0.486
			c1.235,0.337,2.142,0.921,2.721,1.752c0.579,0.831,0.795,1.73,0.649,2.697l-1.998-0.546c0.027-0.706-0.222-1.272-0.748-1.699
			C123.112,212.926,122.761,212.752,122.352,212.64z"/>
		<path d="M129.111,223.186c-0.937-0.143-1.718-0.57-2.343-1.282c-0.625-0.713-0.835-1.749-0.628-3.11
			c0.193-1.275,0.665-2.204,1.415-2.786c0.75-0.583,1.641-0.796,2.672-0.639c0.613,0.093,1.148,0.292,1.604,0.596
			c0.456,0.305,0.806,0.729,1.051,1.273c0.223,0.481,0.333,1.016,0.331,1.606c-0.002,0.345-0.056,0.835-0.161,1.469l-5.042-0.765
			c-0.085,0.743,0.068,1.296,0.46,1.66c0.238,0.225,0.544,0.366,0.918,0.423c0.397,0.06,0.736-0.004,1.018-0.192
			c0.153-0.101,0.298-0.251,0.435-0.452l1.967,0.298c-0.116,0.43-0.411,0.839-0.885,1.228
			C131.184,223.134,130.246,223.358,129.111,223.186z M129.986,216.958c-0.446-0.068-0.813,0.019-1.101,0.261
			c-0.287,0.242-0.499,0.597-0.635,1.065l2.994,0.455c0.046-0.514-0.05-0.924-0.287-1.23
			C130.72,217.204,130.397,217.02,129.986,216.958z"/>
		<path d="M140.288,216.859c0.465,0.432,0.671,1.114,0.62,2.047l-0.277,5.01l-1.993-0.11l0.25-4.525
			c0.021-0.391-0.015-0.695-0.108-0.91c-0.17-0.393-0.523-0.604-1.06-0.633c-0.66-0.037-1.128,0.218-1.405,0.765
			c-0.143,0.289-0.228,0.663-0.253,1.122l-0.222,4.027l-1.939-0.107l0.41-7.426l1.877,0.104l-0.06,1.085
			c0.271-0.369,0.523-0.631,0.755-0.787c0.417-0.278,0.933-0.4,1.547-0.367C139.199,216.197,139.819,216.432,140.288,216.859z"/>
		<path d="M145.29,222.992c0.815-0.034,1.361-0.366,1.638-0.996s0.399-1.323,0.368-2.078c-0.029-0.683-0.161-1.234-0.398-1.653
			c-0.375-0.659-0.985-0.971-1.832-0.936c-0.751,0.032-1.286,0.342-1.603,0.93c-0.317,0.588-0.459,1.287-0.425,2.098
			c0.033,0.779,0.231,1.42,0.594,1.925C143.995,222.787,144.548,223.023,145.29,222.992z M145.055,216.256
			c0.943-0.04,1.753,0.241,2.43,0.842c0.677,0.601,1.042,1.511,1.093,2.732c0.05,1.179-0.196,2.166-0.737,2.959
			s-1.415,1.215-2.622,1.266c-1.007,0.043-1.82-0.264-2.441-0.92c-0.62-0.656-0.954-1.558-1.003-2.705
			c-0.051-1.229,0.22-2.221,0.813-2.976C143.181,216.699,144.003,216.3,145.055,216.256z"/>
		<path d="M148.998,216.421l1.2-0.202l0.173,1.025c0.228-0.404,0.445-0.706,0.651-0.907c0.354-0.342,0.785-0.556,1.293-0.641
			c0.575-0.097,1.061-0.034,1.46,0.19c0.225,0.129,0.445,0.337,0.66,0.624c0.204-0.432,0.472-0.772,0.805-1.02
			c0.333-0.248,0.726-0.41,1.18-0.486c0.971-0.164,1.69,0.075,2.159,0.717c0.252,0.346,0.432,0.838,0.54,1.476l0.81,4.806
			l-1.26,0.212l-0.846-5.015c-0.081-0.481-0.257-0.791-0.528-0.93c-0.271-0.139-0.579-0.18-0.925-0.121
			c-0.476,0.08-0.859,0.309-1.149,0.686c-0.29,0.377-0.372,0.938-0.247,1.684l0.708,4.2l-1.233,0.208l-0.795-4.712
			c-0.082-0.49-0.201-0.837-0.356-1.042c-0.241-0.306-0.613-0.417-1.116-0.332c-0.459,0.077-0.846,0.325-1.161,0.744
			c-0.315,0.418-0.395,1.092-0.238,2.022l0.646,3.829l-1.213,0.205L148.998,216.421z"/>
		<path d="M160.026,214.32l1.219-0.28l1.632,7.102l-1.219,0.28L160.026,214.32z M159.409,211.635l1.22-0.28l0.312,1.359l-1.219,0.28
			L159.409,211.635z"/>
		<path d="M164.972,212.613c0.783-0.26,1.483-0.281,2.1-0.064c0.617,0.217,1.13,0.774,1.538,1.671l-1.135,0.377
			c-0.211-0.405-0.487-0.708-0.828-0.909c-0.341-0.201-0.783-0.212-1.328-0.031c-0.744,0.247-1.155,0.787-1.234,1.62
			c-0.051,0.541,0.039,1.157,0.268,1.849c0.231,0.696,0.573,1.233,1.026,1.611c0.452,0.378,0.994,0.462,1.625,0.253
			c0.485-0.161,0.819-0.437,1.004-0.827c0.185-0.391,0.246-0.861,0.183-1.412l1.135-0.377c0.177,0.964,0.076,1.745-0.302,2.344
			c-0.377,0.599-0.97,1.032-1.779,1.301c-0.908,0.301-1.743,0.21-2.504-0.274s-1.307-1.223-1.637-2.218
			c-0.405-1.22-0.425-2.268-0.058-3.144C163.413,213.508,164.055,212.918,164.972,212.613z"/>
		<path d="M181.162,211.885l0.809,1.621l-6.833,3.409l-4.498-9.017l6.612-3.299l0.797,1.597l-4.772,2.38l0.956,1.915l4.379-2.185
			l0.782,1.566l-4.38,2.185l1.156,2.318L181.162,211.885z"/>
		<path d="M185.227,211.19c-0.269-0.023-0.574-0.111-0.917-0.265l2.095,3.269l-1.624,1.04l-5.601-8.744l1.572-1.006l0.593,0.926
			c0.002-0.385,0.053-0.721,0.152-1.006c0.185-0.513,0.528-0.931,1.031-1.253c0.733-0.469,1.527-0.596,2.382-0.381
			c0.855,0.215,1.619,0.847,2.29,1.894c0.707,1.105,0.998,2.107,0.873,3.005c-0.126,0.897-0.58,1.597-1.363,2.099
			C186.211,211.087,185.717,211.228,185.227,211.19z M185.397,209.668c0.457-0.292,0.692-0.691,0.705-1.198
			c0.014-0.507-0.167-1.054-0.543-1.641c-0.31-0.483-0.694-0.841-1.153-1.072c-0.459-0.231-0.937-0.187-1.432,0.13
			c-0.595,0.381-0.823,0.924-0.684,1.631c0.077,0.373,0.263,0.79,0.558,1.25c0.467,0.729,0.989,1.118,1.566,1.165
			C184.755,209.958,185.082,209.87,185.397,209.668z"/>
		<path d="M187.555,200.766l4.401,6.012l-1.595,1.167l-4.4-6.013L187.555,200.766z M185.968,198.598l1.062,1.45l-1.594,1.167
			l-1.062-1.45L185.968,198.598z"/>
		<path d="M191.665,202.395c0.514,0.592,1.07,0.978,1.668,1.159s1.174,0.03,1.728-0.451c0.43-0.374,0.623-0.866,0.578-1.477
			c-0.045-0.61-0.368-1.261-0.969-1.952c-0.607-0.699-1.199-1.091-1.776-1.178c-0.577-0.087-1.075,0.051-1.494,0.416
			c-0.468,0.407-0.692,0.915-0.672,1.526C190.749,201.048,191.061,201.7,191.665,202.395z M190.52,198.255
			c0.423-0.368,0.855-0.587,1.296-0.656c0.255-0.04,0.599-0.022,1.033,0.053l-2.426-2.791l0.892-0.776l6.611,7.604l-0.835,0.727
			l-0.669-0.769c0.079,0.529,0.037,0.997-0.127,1.406c-0.164,0.409-0.437,0.779-0.819,1.111c-0.615,0.535-1.373,0.74-2.274,0.614
			c-0.901-0.126-1.725-0.619-2.472-1.479c-0.7-0.805-1.101-1.681-1.203-2.628C189.426,199.724,189.757,198.919,190.52,198.255z"/>
		<path d="M195.916,193.061c0.359-0.377,0.794-0.657,1.307-0.842c0.513-0.185,0.997-0.237,1.454-0.154
			c0.437,0.076,0.862,0.254,1.275,0.534c0.295,0.18,0.709,0.524,1.244,1.033l-3.7,3.887c0.553,0.495,1.106,0.779,1.658,0.851
			c0.551,0.072,1.064-0.141,1.538-0.64c0.443-0.465,0.643-0.983,0.6-1.552c-0.027-0.328-0.127-0.637-0.298-0.926l0.834-0.876
			c0.173,0.208,0.317,0.491,0.432,0.85c0.115,0.358,0.172,0.69,0.17,0.996c0.006,0.523-0.135,1.028-0.422,1.515
			c-0.152,0.265-0.357,0.532-0.614,0.803c-0.629,0.66-1.401,0.991-2.318,0.992c-0.917,0.002-1.808-0.409-2.673-1.232
			c-0.851-0.811-1.323-1.7-1.415-2.668C194.897,194.664,195.206,193.807,195.916,193.061z M199.616,193.874
			c-0.421-0.331-0.809-0.541-1.166-0.629c-0.662-0.164-1.265,0.039-1.808,0.61c-0.39,0.409-0.569,0.893-0.537,1.452
			c0.031,0.559,0.267,1.063,0.706,1.513L199.616,193.874z"/>
		<path d="M198.771,190.481l0.722-0.979l0.836,0.617c-0.116-0.449-0.17-0.817-0.161-1.105c0.017-0.491,0.178-0.944,0.484-1.359
			c0.347-0.469,0.741-0.762,1.183-0.877c0.251-0.064,0.553-0.067,0.907-0.01c-0.153-0.453-0.196-0.884-0.129-1.293
			c0.067-0.409,0.238-0.799,0.511-1.169c0.584-0.793,1.268-1.121,2.051-0.984c0.422,0.073,0.893,0.301,1.414,0.686l3.922,2.894
			l-0.759,1.028l-4.093-3.019c-0.392-0.29-0.734-0.391-1.025-0.303c-0.292,0.088-0.542,0.273-0.75,0.556
			c-0.287,0.389-0.403,0.819-0.35,1.292s0.384,0.933,0.993,1.382l3.427,2.529l-0.743,1.007l-3.845-2.837
			c-0.4-0.295-0.727-0.463-0.98-0.503c-0.386-0.053-0.731,0.126-1.034,0.537c-0.276,0.375-0.382,0.822-0.318,1.341
			c0.064,0.52,0.475,1.06,1.234,1.621l3.125,2.305l-0.731,0.99L198.771,190.481z"/>
		<path d="M205.248,181.336l0.679-1.05l6.119,3.959l-0.68,1.05L205.248,181.336z M202.935,179.84l0.679-1.051l1.171,0.758
			l-0.679,1.05L202.935,179.84z"/>
		<path d="M213.655,179.716c0.379-0.722,0.366-1.361-0.04-1.916c-0.407-0.555-0.945-1.009-1.615-1.36
			c-0.605-0.317-1.148-0.479-1.629-0.484c-0.759-0.007-1.335,0.365-1.728,1.116c-0.349,0.666-0.349,1.284,0.001,1.853
			c0.35,0.569,0.884,1.042,1.602,1.419c0.69,0.362,1.345,0.512,1.964,0.451C212.829,180.734,213.31,180.374,213.655,179.716z
			 M207.708,176.544c0.439-0.836,1.088-1.396,1.947-1.681c0.859-0.285,1.83-0.144,2.912,0.423c1.045,0.548,1.776,1.255,2.191,2.122
			c0.415,0.866,0.343,1.834-0.218,2.903c-0.468,0.892-1.141,1.442-2.02,1.651c-0.878,0.208-1.826,0.045-2.843-0.488
			c-1.09-0.571-1.813-1.303-2.168-2.195C207.153,178.388,207.219,177.476,207.708,176.544z"/>
		<path d="M207.354,171.759l0.484-1.132l9.233,3.948l-0.484,1.131L207.354,171.759z"/>
		<path d="M218.057,169.876c0.281-0.765,0.185-1.397-0.29-1.895c-0.475-0.497-1.068-0.876-1.778-1.137
			c-0.641-0.236-1.201-0.325-1.678-0.268c-0.753,0.093-1.275,0.537-1.568,1.332c-0.259,0.706-0.179,1.318,0.242,1.837
			c0.421,0.519,1.013,0.918,1.774,1.198c0.731,0.269,1.4,0.333,2.005,0.191C217.37,170.993,217.801,170.573,218.057,169.876z
			 M211.747,167.505c0.326-0.885,0.896-1.525,1.711-1.92c0.815-0.395,1.796-0.381,2.943,0.041c1.107,0.407,1.924,1.013,2.449,1.818
			c0.525,0.805,0.579,1.774,0.162,2.907c-0.348,0.945-0.944,1.578-1.788,1.899c-0.843,0.321-1.804,0.284-2.882-0.113
			c-1.155-0.425-1.967-1.056-2.436-1.893C211.437,169.407,211.384,168.494,211.747,167.505z"/>
		<path d="M213.843,161.1c0.149-0.555,0.416-1.002,0.8-1.342c0.215-0.183,0.501-0.352,0.858-0.505l-0.891-0.24l0.295-1.096
			l6.429,1.73c0.898,0.241,1.571,0.564,2.019,0.968c0.827,0.751,1.057,1.81,0.688,3.179c-0.205,0.761-0.547,1.356-1.028,1.783
			c-0.481,0.428-1.092,0.575-1.835,0.441l0.325-1.208c0.332,0.028,0.607-0.021,0.825-0.146c0.336-0.197,0.582-0.584,0.737-1.161
			c0.245-0.911,0.084-1.593-0.483-2.048c-0.333-0.269-0.988-0.528-1.964-0.776c0.297,0.335,0.488,0.693,0.574,1.074
			c0.086,0.382,0.055,0.848-0.093,1.398c-0.206,0.766-0.658,1.363-1.356,1.791c-0.698,0.428-1.674,0.473-2.928,0.136
			c-1.184-0.319-2.03-0.857-2.539-1.614C213.767,162.707,213.623,161.919,213.843,161.1z M218.049,159.938
			c-0.876-0.235-1.574-0.229-2.093,0.018c-0.519,0.247-0.854,0.65-1.005,1.209c-0.225,0.836,0.013,1.513,0.714,2.032
			c0.374,0.275,0.9,0.504,1.578,0.687c0.796,0.214,1.446,0.215,1.949,0.004c0.503-0.212,0.827-0.591,0.974-1.136
			c0.23-0.854,0.007-1.558-0.67-2.113C219.113,160.328,218.63,160.095,218.049,159.938z"/>
		<path d="M215.893,152.251l0.231-1.341c0.433,0.25,1.424,0.811,2.971,1.683c1.163,0.653,2.11,1.195,2.841,1.626
			c1.721,1.017,2.759,1.704,3.114,2.061c0.355,0.357,0.472,0.886,0.352,1.587c-0.03,0.171-0.059,0.301-0.088,0.391
			c-0.029,0.089-0.074,0.198-0.133,0.327l-1.105-0.19c0.095-0.201,0.157-0.348,0.187-0.44c0.029-0.092,0.05-0.174,0.063-0.245
			c0.039-0.225,0.03-0.396-0.026-0.515c-0.056-0.118-0.132-0.222-0.227-0.313c-0.033-0.029-0.203-0.141-0.511-0.337
			c-0.309-0.197-0.538-0.34-0.689-0.431l-7.883,1.392l0.236-1.375l6.207-0.923L215.893,152.251z"/>
	</g>
</g>
</svg>
