<?xml version="1.0" encoding="UTF-8"?>
<svg width="1200pt" height="1200pt" version="1.1" viewBox="0 0 1200 1200" xmlns="http://www.w3.org/2000/svg">
 <g>
  <path d="m1095.6 727.2-9.6016-13.199c-44.398-62.398-115.2-98.398-192-98.398-42 0-82.801 10.801-117.6 31.199 33.602 21.602 63.602 49.199 88.801 85.199l12 16.801c21.602 30 27.602 64.801 20.398 96h136.8c28.801 0 52.801-15.602 66-39.602 14.402-26.398 12-55.199-4.7969-78z"/>
  <path d="m1009.2 469.2c0 62.961-51.039 114-114 114-62.961 0-114-51.039-114-114 0-62.961 51.039-114 114-114 62.961 0 114 51.039 114 114"/>
  <path d="m321.6 748.8 12-16.801c25.199-34.801 55.199-63.602 88.801-85.199-34.801-20.398-75.602-31.199-117.6-31.199-76.801 0-146.4 36-192 98.398l-9.6016 13.199c-16.801 22.801-19.199 51.602-6 76.801s37.199 39.602 66 39.602h136.8c-4.8008-31.203 0-64.801 21.602-94.801z"/>
  <path d="m418.8 469.2c0 62.961-51.039 114-114 114-62.961 0-114-51.039-114-114 0-62.961 51.039-114 114-114 62.961 0 114 51.039 114 114"/>
  <path d="m848.4 745.2c-25.199-34.801-56.398-63.602-91.199-84-3.6016-2.3984-7.1992-3.6016-10.801-6-3.6016-2.3984-7.1992-3.6016-10.801-6-40.801-20.398-86.398-31.199-134.4-31.199s-93.602 10.801-134.4 31.199c-3.6016 2.3984-7.1992 3.6016-10.801 6-3.6016 2.3984-7.1992 3.6016-10.801 6-34.801 21.602-66 49.199-91.199 84l-12 16.801c-18 25.199-22.801 54-15.602 82.801 1.1992 3.6016 2.3984 7.1992 3.6016 10.801 1.1992 3.6016 2.3984 7.1992 4.8008 9.6016 0 0 0 1.1992 1.1992 1.1992 18 33.602 50.398 52.801 87.602 52.801h357.6c37.199 0 70.801-19.199 87.602-52.801 0 0 0-1.1992 1.1992-1.1992 1.1992-3.6016 3.6016-7.1992 4.8008-9.6016 1.1992-3.6016 2.3984-7.1992 3.6016-10.801 7.1992-27.602 2.3984-57.602-15.602-82.801z"/>
  <path d="m750 430.8c0 82.844-67.156 150-150 150s-150-67.156-150-150 67.156-150 150-150 150 67.156 150 150"/>
 </g>
</svg>
