<?xml version="1.0" encoding="UTF-8"?>
<svg width="1200pt" height="1200pt" version="1.1" viewBox="0 0 1200 1200" xmlns="http://www.w3.org/2000/svg">
 <g>
  <path d="m873.6 144h-230.4v-6c0-19.199-15.602-33.602-33.602-33.602h-20.398c-6 0-10.801-4.8008-10.801-10.801 0-17.996-14.398-33.598-33.598-33.598h-100.8c-19.199 0-33.602 15.602-33.602 33.602 0 6-4.8008 10.801-10.801 10.801h-20.398c-19.199 0-33.602 15.602-33.602 33.602l0.003906 5.9961h-230.4c-6 0-12 4.8008-12 12v751.2 1.1992 2.3984 1.1992c0 1.1992 1.1992 2.3984 2.3984 2.3984l220.8 220.8c1.1992 1.1992 2.3984 2.3984 3.6016 2.3984h2.3984 2.3984 536.4c6 0 12-4.8008 12-12l0.003907-969.59c1.1992-7.1992-3.5977-12-9.5977-12zm-504 12v-18c0-6 4.8008-10.801 10.801-10.801h20.398c19.199 0 33.602-15.602 33.602-33.602-1.2031-4.7969 3.5977-9.5977 9.5977-9.5977h102c6 0 10.801 4.8008 10.801 10.801 0 19.199 15.602 33.602 33.602 33.602h20.398c6 0 10.801 4.8008 10.801 10.801v44.398h-252zm-66 116.4h381.6c6 0 12 4.8008 12 12 0 7.1992-4.8008 12-12 12h-381.6c-6 0-12-4.8008-12-12 0-7.1992 4.7969-12 12-12zm-91.203 97.203h91.199c6 0 12 4.8008 12 12 0 6-4.8008 12-12 12h-91.199c-6 0-12-4.8008-12-12 0-7.2031 4.8008-12 12-12zm0 105.6h364.8c6 0 12 4.8008 12 12 0 6-4.8008 12-12 12h-364.8c-6 0-12-4.8008-12-12 0-6 4.8008-12 12-12zm0 106.8h204c6 0 12 4.8008 12 12s-4.8008 12-12 12h-204c-6 0-12-4.8008-12-12s4.8008-12 12-12zm112.8 517.2-181.2-180h181.2zm274.8-280.8h-387.6c-6 0-12-4.8008-12-12 0-6 4.8008-12 12-12h387.6c6 0 12 4.8008 12 12 0 7.2031-4.8008 12-12 12zm176.4 0h-122.4c-6 0-12-4.8008-12-12 0-6 4.8008-12 12-12h123.6c6 0 12 4.8008 12 12-1.2031 7.2031-6 12-13.203 12zm0-106.8h-564c-6 0-12-4.8008-12-12 0-6 4.8008-12 12-12h565.2c6 0 12 4.8008 12 12-1.1992 7.1992-5.9961 12-13.199 12zm0-105.6h-304.8c-6 0-12-4.8008-12-12s4.8008-12 12-12h304.8c6 0 12 4.8008 12 12-0.003906 7.1992-4.8008 12-12.004 12zm0-106.8h-150c-6 0-12-4.8008-12-12 0-6 4.8008-12 12-12h151.2c6 0 12 4.8008 12 12-1.1992 7.1992-5.9961 12-13.199 12zm0-106.8h-415.2c-6 0-12-4.8008-12-12 0-6 4.8008-12 12-12h416.4c6 0 12 4.8008 12 12-1.1992 7.2031-5.9961 12-13.199 12z"/>
  <path d="m1064.4 366h-7.1992v-1.1992c0-10.801-4.8008-20.398-13.199-27.602v-51.602c0-18-14.398-33.602-33.602-33.602h-44.398c-18 0-33.602 14.398-33.602 33.602v51.602c-8.3984 6-13.199 15.602-13.199 27.602v439.2 2.3984 2.3984l56.398 116.4 0.003906 10.805c0 6 4.8008 12 12 12 7.1992 0 12-4.8008 12-12v-10.801l56.398-116.4v-2.3984-2.3984-415.2h7.1992c4.8008 0 8.3984 3.6016 8.3984 8.3984v196.8c0 6 4.8008 12 12 12 6 0 12-4.8008 12-12l0.003906-196.8c0-16.801-13.203-31.199-31.203-31.199zm-75.598 530.4-38.402-80.398h76.801zm-32.402-610.8c0-6 4.8008-9.6016 9.6016-9.6016h44.398c6 0 9.6016 4.8008 9.6016 9.6016v43.199h-64.801v-43.199z"/>
 </g>
</svg>
