<?xml version="1.0" encoding="UTF-8"?>
<svg width="1200pt" height="1200pt" version="1.1" viewBox="0 0 1200 1200" xmlns="http://www.w3.org/2000/svg">
 <path d="m599.96 316.56c-12.793 0-17.02 3.5117-25.465 7.2891-8.4414 3.7734-18.34 8.8438-29.285 14.988-21.895 12.293-48.117 28.902-73.895 47.094-25.773 18.195-50.871 37.848-70.434 57.012-9.7812 9.582-18.363 18.941-24.953 28.734-6.5859 9.7969-11.992 20.082-11.992 33.859 0 135.61 49.855 230.41 103.37 290.22 26.754 29.902 54.297 51.332 77.211 65.402 11.461 7.0352 21.73 12.203 30.535 15.867 8.8086 3.6719 14.086 6.4609 24.91 6.4609s16.285-2.7891 25.09-6.4609c8.8125-3.6562 19.074-8.8281 30.535-15.867 22.918-14.07 50.457-35.5 77.215-65.402 53.512-59.809 103.37-154.61 103.37-290.22 0-13.777-5.5898-24.062-12.18-33.859-6.5859-9.793-14.988-19.152-24.77-28.734-19.562-19.164-44.656-38.816-70.434-57.012-25.773-18.191-52.18-34.801-74.074-47.094-10.949-6.1484-20.664-11.215-29.105-14.988-8.4453-3.7773-12.855-7.2891-25.645-7.2891zm81.777 200.69c5.7031-0.21875 11.289 1.6328 15.73 5.2109 4.9141 3.9219 8.0664 9.6406 8.75 15.895 0.68359 6.25-1.1562 12.516-5.1055 17.41l-94.512 118.03c-4.2031 5.1953-10.41 8.3633-17.086 8.7266-6.6719 0.35938-13.184-2.125-17.922-6.8359l-70.988-70.754c-4.457-4.4336-6.9609-10.457-6.9609-16.742 0-6.2852 2.5039-12.312 6.9609-16.746 4.4336-4.4531 10.457-6.9609 16.742-6.9609s12.312 2.5078 16.746 6.9609l52.121 52.309 77.949-97.648c4.293-5.3672 10.707-8.6016 17.574-8.8555z"/>
</svg>
