<svg width="172" height="172" xmlns="http://www.w3.org/2000/svg" xmlns:xlink="http://www.w3.org/1999/xlink" xml:space="preserve" overflow="hidden"><g transform="translate(-149 -284)"><g><g><g><g><path d="M86.8575 47.6318C86.8575 38.2499 86.7813 16.8839 86.7813 14.0516 86.7804 11.8095 83.4279 11.6838 83.4279 14.0516 83.4279 16.8839 83.466 38.2499 83.466 47.6318 82.3352 47.8467 81.4381 47.648 79.2374 49.6979 77.2176 51.5792 76.8477 55.6793 77.6881 57.5795 78.5287 59.4797 79.9442 60.7612 81.0008 61.3469 79.9233 61.6022 77.8597 62.6451 76.2611 63.7293 74.6626 64.8135 73.0401 66.6132 72.4721 67.3988 66.2741 60.9976 65.1141 61.0837 62.0081 56.0122 58.9021 50.9407 58.1921 47.6042 58.0146 42.7995 57.8371 37.9949 58.0146 38.4843 58.0146 36.5713 58.0146 34.6584 53.9324 33.7686 53.9324 36.5713L53.9324 42.7995C53.9324 47.3372 55.0418 51.9194 56.7278 55.1669 58.0768 57.765 64.4188 65.2655 67.4214 68.691 57.3047 71.4047 36.087 77.0313 22.3851 80.8038 7.02105 85.034 12.127 103.302 26.5921 99.4757 38.1641 96.4157 61.8897 89.8964 73.8108 86.6193L74.2101 87.0197C71.421 88.8002 66.4452 91.3263 60.7656 95.9172 53.6663 101.656 47.9423 112.689 46.9661 115.047 45.99 117.404 48.8298 120.163 50.5602 116.826 52.2907 113.489 57.0556 103.681 64.7147 98.0077 70.1558 93.9772 73.8108 92.117 77.4936 89.8671L78.3811 90.3116C76.621 92.032 71.9738 97.2427 67.4657 104.325 61.8306 113.178 62.0524 130.35 61.9193 134.798 61.7861 139.248 61.9637 155.263 62.1856 157.487 62.4074 159.711 66.2677 160.29 66.179 157.087 66.0902 153.884 65.8684 137.202 65.8684 134.798 65.8684 132.396 66.179 114.913 70.6605 106.861 74.2456 100.42 75.7632 99.4757 75.7632 99.4757 75.7927 106.431 75.8342 120.848 75.7632 126.933 75.6744 134.541 81.0877 136.8 85.1699 136.8 89.2518 136.8 94.6652 134.541 94.5767 126.933 94.5058 120.848 94.5474 106.431 94.5767 99.4757 94.5767 99.4757 96.0943 100.42 99.6793 106.861 104.161 114.913 104.471 132.396 104.471 134.798 104.471 137.202 104.25 153.884 104.16 157.087 104.072 160.29 107.932 159.711 108.155 157.487 108.376 155.263 108.554 139.248 108.42 134.798 108.287 130.35 108.51 113.178 102.874 104.325 98.3662 97.2427 93.7187 92.032 91.9585 90.3116L92.8466 89.8671C96.529 92.117 100.184 93.9772 105.625 98.0077 113.285 103.681 118.049 113.489 119.779 116.826 121.51 120.163 124.35 117.404 123.374 115.047 122.397 112.689 116.674 101.656 109.574 95.9172 103.895 91.3263 98.9188 88.8002 96.1297 87.0197L96.529 86.6193C108.45 89.8964 132.176 96.4157 143.747 99.4757 158.212 103.302 163.319 85.034 147.955 80.8038 134.253 77.0313 113.035 71.4047 102.918 68.691 105.921 65.2655 112.263 57.7649 113.612 55.1669 115.298 51.9193 116.408 47.3372 116.408 42.7995L116.408 36.5713C116.408 33.7686 112.325 34.6584 112.325 36.5713 112.325 38.4843 112.503 37.9949 112.325 42.7995 112.148 47.6042 111.438 50.9407 108.332 56.0122 105.226 61.0837 104.101 60.9976 97.9032 67.3988 97.3356 66.6132 95.6772 64.8135 94.0791 63.7293 92.48 62.6451 90.417 61.6022 89.3394 61.3469 90.3957 60.7612 91.8115 59.4797 92.6518 57.5795 93.492 55.6793 93.1219 51.5792 91.1023 49.6979 88.902 47.648 87.9884 47.8467 86.8575 47.6318Z" fill="#21272A" fill-rule="nonzero" fill-opacity="1" transform="matrix(1.00588 0 0 1 150 285)"/></g></g></g></g></g></svg>